<svg width="100%" height="100%" viewBox="0 0 1474 634" version="1.1" xmlns="http://www.w3.org/2000/svg" xmlns:xlink="http://www.w3.org/1999/xlink" xml:space="preserve" xmlns:serif="http://www.serif.com/" style="fill-rule:evenodd;clip-rule:evenodd;stroke-linejoin:round;stroke-miterlimit:2;">
                <g transform="matrix(1,0,0,1,-1158.9,-453.67)">
                    <g transform="matrix(1,0,0,1,-4.93993,1.92986)">
                        <g transform="matrix(1.26566,0,0,1.26566,260.184,-215.085)">
                            <g class="svg-column" transform="matrix(40.3307,0,0,20.6859,-10309.4,-7007.4)">
                                <path d="M296.912,383.861L295.068,388.392L296.33,388.392L297.213,386.223L297.213,388.392L298.82,388.392L298.82,383.861L296.912,383.861Z" style="fill:rgb(71,80,89);fill-rule:nonzero;"></path>
                                <path d="M294.4,367.242L297.213,367.242L297.213,368.753L298.82,368.753L298.82,367.242L299.623,367.242L299.623,365.732L298.82,365.732L298.82,364.221L297.213,364.221L297.213,365.732L295.716,365.732L296.33,364.221L295.068,364.221L294.4,365.862L294.4,367.242Z" style="fill:rgb(71,80,89);fill-rule:nonzero;"></path>
                                <path class="svg-value" d="M297.213,377.817L295.716,377.817L297.213,374.137L297.213,377.817ZM298.82,371.775L296.912,371.775L294.4,377.948L294.4,379.328L297.213,379.328L297.213,380.839L298.82,380.839L298.82,379.328L299.623,379.328L299.623,377.817L298.82,377.817L298.82,371.775Z"></path>
                                <rect x="301.756" y="364.221" width="0.43" height="24.171"></rect>
                            </g>
                            <g class="svg-column" transform="matrix(40.3307,0,0,20.6859,-11073.4,-7007.4)">
                                <path d="M296.912,383.861L295.068,388.392L296.33,388.392L297.213,386.223L297.213,388.392L298.82,388.392L298.82,383.861L296.912,383.861Z" style="fill:rgb(71,80,89);fill-rule:nonzero;"></path>
                                <path d="M294.4,367.242L297.213,367.242L297.213,368.753L298.82,368.753L298.82,367.242L299.623,367.242L299.623,365.732L298.82,365.732L298.82,364.221L297.213,364.221L297.213,365.732L295.716,365.732L296.33,364.221L295.068,364.221L294.4,365.862L294.4,367.242Z" style="fill:rgb(71,80,89);fill-rule:nonzero;"></path>
                                <path class="svg-value" d="M297.213,377.817L295.716,377.817L297.213,374.137L297.213,377.817ZM298.82,371.775L296.912,371.775L294.4,377.948L294.4,379.328L297.213,379.328L297.213,380.839L298.82,380.839L298.82,379.328L299.623,379.328L299.623,377.817L298.82,377.817L298.82,371.775Z"></path>
                                <rect x="292.268" y="364.221" width="0.43" height="24.171"></rect>
                            </g>
                            <g class="svg-column" transform="matrix(40.3266,0,0,20.6859,-4280.86,-7006.96)">
                                <path d="M138.306,382.187C136.799,382.187 135.832,383.09 135.832,384.546L135.832,388.392L137.439,388.392L137.439,384.383C137.439,383.844 137.854,383.567 138.306,383.567C138.758,383.567 139.172,383.844 139.172,384.383L139.172,388.392L140.779,388.392L140.779,384.546C140.779,383.09 139.813,382.187 138.306,382.187Z" style="fill:rgb(71,80,89);fill-rule:nonzero;"></path>
                                <path d="M138.306,367.455C139.813,367.455 140.779,366.501 140.779,365.045L140.779,364.221L139.172,364.221L139.172,365.147C139.172,365.686 138.758,366.075 138.306,366.075C137.854,366.075 137.439,365.686 137.439,365.147L137.439,364.221L135.832,364.221L135.832,365.045C135.832,366.501 136.799,367.455 138.306,367.455Z" style="fill:rgb(71,80,89);fill-rule:nonzero;"></path>
                                <path class="svg-value" d="M139.172,377.231C139.172,377.772 138.758,378.161 138.306,378.161C137.854,378.161 137.439,377.772 137.439,377.231L137.439,372.297C137.439,371.758 137.854,371.482 138.306,371.482L138.306,371.481L138.306,371.482C138.758,371.482 139.172,371.758 139.172,372.297L139.172,377.231ZM138.306,370.101C136.799,370.101 135.832,371.004 135.832,372.46L135.832,377.131C135.832,378.587 136.799,379.541 138.306,379.541C139.813,379.541 140.779,378.587 140.779,377.131L140.779,372.46C140.779,371.004 139.813,370.101 138.306,370.101Z"></path>
                                <rect x="142.834" y="364.221" width="0.432" height="24.171"></rect>
                                <rect x="133.347" y="364.221" width="0.429" height="24.171"></rect>
                            </g>
                        </g>
                    </g>
                </g>
              </svg>