<svg width="32" height="32" viewBox="0 0 32 32" fill="#1D166A" xmlns="http://www.w3.org/2000/svg">
<path d="M14.375 3C13.4775 3 12.75 3.72754 12.75 4.625C12.75 5.52246 13.4775 6.25 14.375 6.25H17.625C18.5225 6.25 19.25 5.52246 19.25 4.625C19.25 3.72754 18.5225 3 17.625 3H14.375Z" fill="#1D166A"/>
<path fill-rule="evenodd" clip-rule="evenodd" d="M6.25 7.875C6.25 6.08007 7.70507 4.625 9.5 4.625C9.5 7.31739 11.6826 9.5 14.375 9.5H17.625C20.3174 9.5 22.5 7.31739 22.5 4.625C24.2949 4.625 25.75 6.08007 25.75 7.875V25.75C25.75 27.5449 24.2949 29 22.5 29H9.5C7.70508 29 6.25 27.5449 6.25 25.75V7.875ZM11.125 14.375C10.2275 14.375 9.5 15.1025 9.5 16C9.5 16.8975 10.2275 17.625 11.125 17.625H11.1413C12.0387 17.625 12.7663 16.8975 12.7663 16C12.7663 15.1025 12.0387 14.375 11.1413 14.375H11.125ZM16 14.375C15.1025 14.375 14.375 15.1025 14.375 16C14.375 16.8975 15.1025 17.625 16 17.625H20.875C21.7725 17.625 22.5 16.8975 22.5 16C22.5 15.1025 21.7725 14.375 20.875 14.375H16ZM11.125 20.875C10.2275 20.875 9.5 21.6025 9.5 22.5C9.5 23.3975 10.2275 24.125 11.125 24.125H11.1413C12.0387 24.125 12.7663 23.3975 12.7663 22.5C12.7663 21.6025 12.0387 20.875 11.1413 20.875H11.125ZM16 20.875C15.1025 20.875 14.375 21.6025 14.375 22.5C14.375 23.3975 15.1025 24.125 16 24.125H20.875C21.7725 24.125 22.5 23.3975 22.5 22.5C22.5 21.6025 21.7725 20.875 20.875 20.875H16Z" fill="#1D166A"/>
</svg>
