<svg width="25" height="23" viewBox="0 0 25 23" fill="none" xmlns="http://www.w3.org/2000/svg">
<g clip-path="url(#clip0_194_41259)">
<path d="M10.5646 7.82814H7.98683C5.87778 7.82814 4.16798 6.11834 4.16798 4.00929C4.16798 1.90024 5.87778 0.19043 7.98683 0.19043H8.08231C9.46664 0.19043 10.7512 0.924258 11.4542 2.11939L12.5 3.89906L13.5459 2.11939C14.2489 0.924258 15.5334 0.19043 16.9177 0.19043H17.0132C19.1223 0.19043 20.8321 1.90024 20.8321 4.00929C20.8321 6.11834 19.1223 7.82814 17.0132 7.82814H14.4355L16.7702 10.6315C17.1391 11.0742 17.0783 11.6947 16.64 12.0983C16.1974 12.4672 15.5378 12.4064 15.1732 11.9681L12.5 8.76116L9.82683 11.9681C9.42324 12.4064 8.80268 12.4672 8.36004 12.0983C7.92174 11.6947 7.86099 11.0742 8.22985 10.6315L10.5646 7.82814ZM7.98683 2.27344C7.02778 2.27344 6.25099 3.05067 6.25099 4.00929C6.25099 4.96834 7.02778 5.74513 7.98683 5.74513H11.1678L9.65758 3.17521C9.32777 2.61671 8.72891 2.27344 8.08231 2.27344H7.98683ZM18.7491 4.00929C18.7491 3.05067 17.9723 2.27344 17.0132 2.27344H16.9177C16.2711 2.27344 15.6723 2.61671 15.3425 3.17521L13.8323 5.74513H17.0132C17.9723 5.74513 18.7491 4.96834 18.7491 4.00929ZM0.00195312 18.2432V14.0772H24.9981V18.2432H0.00195312Z" fill="black"/>
<path opacity="0.4" d="M20.4155 5.74512H22.2208C23.7526 5.74512 24.9981 6.99059 24.9981 8.52247V14.0772H0.00195312V8.52247C0.00195312 6.99059 1.24525 5.74512 2.7793 5.74512H4.58458C5.21816 6.98191 6.50269 7.82813 7.98683 7.82813H10.5646L8.22985 10.6315C7.86099 11.0742 7.92174 11.6947 8.36004 12.0983C8.80268 12.4672 9.42324 12.4064 9.82683 11.9681L12.461 8.76115L15.1732 11.9681C15.5378 12.4064 16.1974 12.4672 16.64 12.0983C17.0783 11.6947 17.1391 11.0742 16.7702 10.6315L14.4355 7.82813H17.0132C18.4974 7.82813 19.7819 6.98191 20.4155 5.74512ZM24.9981 18.2432V19.6319C24.9981 21.1638 23.7526 22.4092 22.2208 22.4092H2.7793C1.24525 22.4092 0.00195312 21.1638 0.00195312 19.6319V18.2432H24.9981Z" fill="black"/>
</g>
<defs>
<clipPath id="clip0_194_41259">
<rect width="25" height="22.2188" fill="white" transform="translate(0 0.19043)"/>
</clipPath>
</defs>
</svg>
