<svg width="24" height="24" viewBox="0 0 24 24" fill="none" xmlns="http://www.w3.org/2000/svg">
<g id="Icon">
<path id="Vector" d="M19.6799 1.91992H4.31992C2.99512 1.91992 1.91992 2.99512 1.91992 4.31992V19.6799C1.91992 21.0047 2.99512 22.0799 4.31992 22.0799H19.6799C21.0047 22.0799 22.0799 21.0047 22.0799 19.6799V4.31992C22.0799 2.99512 21.0047 1.91992 19.6799 1.91992ZM8.15992 9.59992V18.7199H5.27992V9.59992H8.15992ZM5.27992 6.94552C5.27992 6.27352 5.85592 5.75992 6.71992 5.75992C7.58392 5.75992 8.12632 6.27352 8.15992 6.94552C8.15992 7.61752 7.62232 8.15992 6.71992 8.15992C5.85592 8.15992 5.27992 7.61752 5.27992 6.94552ZM18.7199 18.7199H15.8399C15.8399 18.7199 15.8399 14.2751 15.8399 13.9199C15.8399 12.9599 15.3599 11.9999 14.1599 11.9807H14.1215C12.9599 11.9807 12.4799 12.9695 12.4799 13.9199C12.4799 14.3567 12.4799 18.7199 12.4799 18.7199H9.59992V9.59992H12.4799V10.8287C12.4799 10.8287 13.4063 9.59992 15.2687 9.59992C17.1743 9.59992 18.7199 10.9103 18.7199 13.5647V18.7199Z" fill="#EEF4F9"/>
</g>
</svg>
