<svg width="25" height="26" viewBox="0 0 25 26" fill="none" xmlns="http://www.w3.org/2000/svg">
<g clip-path="url(#clip0_196_45437)">
<path d="M15.625 5.4873H9.375L7.06055 2.01465C6.71387 1.49512 7.08496 0.799805 7.70996 0.799805H17.29C17.915 0.799805 18.2861 1.49512 17.9395 2.01465L15.625 5.4873ZM9.375 7.0498H15.625C15.8105 7.17188 16.0205 7.30859 16.2158 7.45996C19.0283 9.23242 25 13.0508 25 21.1123C25 23.7002 22.9004 25.7998 20.3125 25.7998H4.6875C2.09863 25.7998 0 23.7002 0 21.1123C0 13.0508 5.97168 9.23242 8.74023 7.45996C8.97949 7.30859 9.18945 7.17188 9.375 7.0498ZM13.4814 11.7373C13.4814 11.1953 13.042 10.7559 12.4561 10.7559C11.958 10.7559 11.5186 11.1953 11.5186 11.7373V12.0303C11.2451 12.0889 10.9424 12.1719 10.7422 12.2793C10.0146 12.6113 9.37988 13.2266 9.22363 14.1201C9.13574 14.6182 9.18457 15.1016 9.38965 15.5361C9.59473 15.9658 9.91211 16.2686 10.2344 16.4883C10.8008 16.874 11.5479 17.0986 12.1191 17.2695L12.2266 17.2988C12.9102 17.5088 13.3691 17.6602 13.6572 17.8701C13.7793 17.958 13.8232 18.0264 13.8379 18.0703C13.8574 18.1094 13.8867 18.1973 13.8525 18.3926C13.8232 18.5635 13.7305 18.71 13.4619 18.8223C13.1641 18.9492 12.6807 19.0127 12.0557 18.915C11.7627 18.8662 11.2402 18.6904 10.7764 18.5342C10.6689 18.4951 10.5615 18.4609 10.4639 18.4268C9.95117 18.2559 9.39941 18.5342 9.22852 19.0469C9.05762 19.5596 9.33594 20.1113 9.84863 20.2383C9.90723 20.3018 9.98047 20.3262 10.0635 20.3555C10.4053 20.4873 11.0547 20.6924 11.5186 20.7998V21.1123C11.5186 21.6543 11.958 22.0938 12.4561 22.0938C13.042 22.0938 13.4814 21.6543 13.4814 21.1123V20.8438C13.7402 20.7949 13.9941 20.6777 14.2285 20.6191C15 20.292 15.6152 19.6572 15.7764 18.7295C15.8643 18.2217 15.8252 17.7334 15.6299 17.2891C15.4395 16.8496 15.1318 16.5273 14.8047 16.293C14.2139 15.8584 13.4229 15.624 12.832 15.4434L12.749 15.4336C12.0996 15.2236 11.6309 15.0771 11.333 14.8721C11.2061 14.7842 11.167 14.7256 11.1572 14.7012C11.1475 14.6816 11.1182 14.623 11.1475 14.457C11.167 14.3594 11.2402 14.1982 11.5479 14.0615C11.8213 13.9199 12.3486 13.8418 12.9443 13.8906C13.1592 13.9688 13.8184 14.0957 14.0088 14.1445C14.5264 14.2861 15.0635 13.9736 15.2002 13.4512C15.3418 12.9336 15.0293 12.3965 14.5068 12.2598C14.292 12.2012 13.8037 12.1035 13.4814 12.0449V11.7373Z" fill="black"/>
</g>
<defs>
<clipPath id="clip0_196_45437">
<rect width="25" height="25" fill="white" transform="translate(0 0.799805)"/>
</clipPath>
</defs>
</svg>
