<svg version="1.1" id="Layer_1" xmlns="http://www.w3.org/2000/svg" xmlns:xlink="http://www.w3.org/1999/xlink" x="0px" y="0px"
	 width="100%" viewBox="0 0 1024 1024" enable-background="new 0 0 1024 1024" xml:space="preserve">
<path fill="#000000" opacity="1.000000" stroke="none" 
	d="
M568.000000,1025.000000 
	C378.666656,1025.000000 189.833328,1025.000000 1.000000,1025.000000 
	C1.000000,683.666687 1.000000,342.333344 1.000000,1.000000 
	C342.333344,1.000000 683.666687,1.000000 1025.000000,1.000000 
	C1025.000000,342.333344 1025.000000,683.666687 1025.000000,1025.000000 
	C872.833313,1025.000000 720.666687,1025.000000 568.000000,1025.000000 
M649.397644,973.980591 
	C656.680176,971.624878 664.106140,969.634094 671.216248,966.839722 
	C687.438721,960.464050 703.745361,954.216492 719.582764,946.966492 
	C745.235901,935.223083 769.612793,921.022095 792.156372,904.075134 
	C809.455933,891.070190 826.325562,877.364929 842.361511,862.839600 
	C863.324097,843.851685 881.865295,822.504761 898.766418,799.767090 
	C913.918274,779.382568 927.438782,757.966797 939.092712,735.430664 
	C945.472961,723.092896 951.103577,710.351013 956.696655,697.626343 
	C965.700928,677.140991 972.916870,655.970947 977.898254,634.183533 
	C982.260193,615.105652 985.851135,595.816956 988.874268,576.479370 
	C991.029358,562.694214 992.470764,548.692810 992.805725,534.753662 
	C993.256165,516.009399 992.623047,497.220947 991.894287,478.473267 
	C991.447327,466.973541 990.750427,455.372894 988.746033,444.069336 
	C985.445557,425.457001 981.312805,406.973236 976.954224,388.571899 
	C970.085022,359.570679 959.230286,331.936310 946.472839,305.083862 
	C934.522766,279.930878 920.668274,255.767868 903.830261,233.577499 
	C890.540039,216.062729 876.574646,198.975510 861.821533,182.683273 
	C850.729187,170.433701 838.323608,159.265091 825.746643,148.498352 
	C813.076111,137.651459 799.821960,127.400414 786.202271,117.766685 
	C760.509094,99.592896 733.072449,84.443031 704.131470,71.941696 
	C677.863708,60.595070 650.866394,51.511219 623.028564,45.141468 
	C607.774231,41.651039 592.219971,39.372421 576.722961,37.073559 
	C564.717407,35.292641 552.598816,33.310635 540.516174,33.214001 
	C515.817688,33.016476 491.051544,31.617020 466.414246,34.970375 
	C452.933105,36.805279 439.203766,37.409084 425.965729,40.303223 
	C404.363708,45.025909 382.789948,50.272774 361.713531,56.914513 
	C327.635284,67.653465 295.523407,82.935867 264.849670,101.418350 
	C237.367554,117.977737 211.697983,136.928436 188.173645,158.569321 
	C170.159836,175.140869 153.383301,193.025833 138.025711,212.250839 
	C118.747665,236.383560 101.984467,262.106018 87.422752,289.238190 
	C75.597008,311.272552 65.919479,334.332092 57.950462,358.059998 
	C49.477081,383.289642 42.407501,408.909912 39.069096,435.364410 
	C36.623363,454.745148 33.812618,474.197998 33.303581,493.674591 
	C32.689350,517.176086 33.663479,540.782166 35.252140,564.254822 
	C36.230415,578.708984 39.542095,593.015381 41.980480,607.358521 
	C46.754520,635.440491 55.271767,662.507507 65.558502,688.953369 
	C74.749359,712.581848 85.999336,735.285461 98.946747,757.166260 
	C116.467262,786.775696 136.757309,814.322144 160.197739,839.408386 
	C172.624298,852.707520 186.271759,864.902771 199.766739,877.157349 
	C217.385895,893.156921 236.823151,906.736206 256.866852,919.581604 
	C282.474091,935.992554 309.481323,949.601929 337.685547,960.665100 
	C359.647705,969.279907 382.059845,976.973022 405.408325,981.117126 
	C427.451660,985.029602 449.521881,988.948364 471.719025,991.774231 
	C483.998810,993.337585 496.563782,992.949707 508.999268,992.927002 
	C524.102478,992.899414 539.255859,992.982422 554.292603,991.805237 
	C568.470337,990.695312 582.637573,988.590637 596.605042,985.873047 
	C614.037109,982.481384 631.260071,978.014893 649.397644,973.980591 
z"/>
<path fill="#E53935" opacity="1.000000" stroke="none" 
	d="
M648.985474,973.996460 
	C631.260071,978.014893 614.037109,982.481384 596.605042,985.873047 
	C582.637573,988.590637 568.470337,990.695312 554.292603,991.805237 
	C539.255859,992.982422 524.102478,992.899414 508.999268,992.927002 
	C496.563782,992.949707 483.998810,993.337585 471.719025,991.774231 
	C449.521881,988.948364 427.451660,985.029602 405.408325,981.117126 
	C382.059845,976.973022 359.647705,969.279907 337.685547,960.665100 
	C309.481323,949.601929 282.474091,935.992554 256.866852,919.581604 
	C236.823151,906.736206 217.385895,893.156921 199.766739,877.157349 
	C186.271759,864.902771 172.624298,852.707520 160.197739,839.408386 
	C136.757309,814.322144 116.467262,786.775696 98.946747,757.166260 
	C85.999336,735.285461 74.749359,712.581848 65.558502,688.953369 
	C55.271767,662.507507 46.754520,635.440491 41.980480,607.358521 
	C39.542095,593.015381 36.230415,578.708984 35.252140,564.254822 
	C33.663479,540.782166 32.689350,517.176086 33.303581,493.674591 
	C33.812618,474.197998 36.623363,454.745148 39.069096,435.364410 
	C42.407501,408.909912 49.477081,383.289642 57.950462,358.059998 
	C65.919479,334.332092 75.597008,311.272552 87.422752,289.238190 
	C101.984467,262.106018 118.747665,236.383560 138.025711,212.250839 
	C153.383301,193.025833 170.159836,175.140869 188.173645,158.569321 
	C211.697983,136.928436 237.367554,117.977737 264.849670,101.418350 
	C295.523407,82.935867 327.635284,67.653465 361.713531,56.914513 
	C382.789948,50.272774 404.363708,45.025909 425.965729,40.303223 
	C439.203766,37.409084 452.933105,36.805279 466.414246,34.970375 
	C491.051544,31.617020 515.817688,33.016476 540.516174,33.214001 
	C552.598816,33.310635 564.717407,35.292641 576.722961,37.073559 
	C592.219971,39.372421 607.774231,41.651039 623.028564,45.141468 
	C650.866394,51.511219 677.863708,60.595070 704.131470,71.941696 
	C733.072449,84.443031 760.509094,99.592896 786.202271,117.766685 
	C799.821960,127.400414 813.076111,137.651459 825.746643,148.498352 
	C838.323608,159.265091 850.729187,170.433701 861.821533,182.683273 
	C876.574646,198.975510 890.540039,216.062729 903.830261,233.577499 
	C920.668274,255.767868 934.522766,279.930878 946.472839,305.083862 
	C959.230286,331.936310 970.085022,359.570679 976.954224,388.571899 
	C981.312805,406.973236 985.445557,425.457001 988.746033,444.069336 
	C990.750427,455.372894 991.447327,466.973541 991.894287,478.473267 
	C992.623047,497.220947 993.256165,516.009399 992.805725,534.753662 
	C992.470764,548.692810 991.029358,562.694214 988.874268,576.479370 
	C985.851135,595.816956 982.260193,615.105652 977.898254,634.183533 
	C972.916870,655.970947 965.700928,677.140991 956.696655,697.626343 
	C951.103577,710.351013 945.472961,723.092896 939.092712,735.430664 
	C927.438782,757.966797 913.918274,779.382568 898.766418,799.767090 
	C881.865295,822.504761 863.324097,843.851685 842.361511,862.839600 
	C826.325562,877.364929 809.455933,891.070190 792.156372,904.075134 
	C769.612793,921.022095 745.235901,935.223083 719.582764,946.966492 
	C703.745361,954.216492 687.438721,960.464050 671.216248,966.839722 
	C664.106140,969.634094 656.680176,971.624878 648.985474,973.996460 
M253.999390,345.500580 
	C243.699051,335.200623 233.398697,324.900665 222.994583,314.496979 
	C171.609268,391.982452 152.071823,475.951843 166.028763,567.163208 
	C180.015366,658.568420 224.513748,732.895508 296.672028,789.804565 
	C423.404449,889.754578 594.804199,884.816833 711.169678,802.672302 
	C558.916931,650.419067 406.708130,498.209839 253.999390,345.500580 
M857.984924,581.275757 
	C858.023987,580.108765 857.957947,578.927185 858.118103,577.777100 
	C860.058533,563.847107 863.077087,549.970642 863.729919,535.982910 
	C864.525391,518.937561 864.132385,501.736725 862.783447,484.719696 
	C861.467957,468.125366 859.308838,451.456360 855.743713,435.209930 
	C846.961670,395.190002 831.112061,357.922974 808.911011,323.446381 
	C791.155457,295.873322 769.889709,271.340393 745.230347,249.652710 
	C730.426147,236.632507 714.776489,224.934662 698.073425,214.454147 
	C676.648193,201.010651 654.078125,190.110168 630.280273,181.694504 
	C611.662109,175.110550 592.724915,169.651260 573.105835,166.963303 
	C559.959778,165.162155 546.808044,163.247772 533.595520,162.139862 
	C524.812378,161.403351 515.900696,161.653580 507.076172,162.077774 
	C491.926910,162.806000 476.608459,162.853912 461.713989,165.319473 
	C443.443970,168.343811 425.311615,172.789444 407.520935,177.992462 
	C374.256744,187.720840 343.687317,203.358643 315.473206,222.569275 
	C478.141998,385.237335 640.779602,547.874146 803.476562,710.570374 
	C804.260193,709.356750 805.277954,707.738525 806.336487,706.147461 
	C822.617859,681.672241 835.829956,655.634277 844.976990,627.698792 
	C849.885437,612.707825 853.641418,597.339539 857.984924,581.275757 
z"/>
<path fill="#000000" opacity="1.000000" stroke="none" 
	d="
M254.249390,345.750610 
	C406.708130,498.209839 558.916931,650.419067 711.169678,802.672302 
	C594.804199,884.816833 423.404449,889.754578 296.672028,789.804565 
	C224.513748,732.895508 180.015366,658.568420 166.028763,567.163208 
	C152.071823,475.951843 171.609268,391.982452 222.994583,314.496979 
	C233.398697,324.900665 243.699051,335.200623 254.249390,345.750610 
z"/>
<path fill="#000000" opacity="1.000000" stroke="none" 
	d="
M857.951172,581.708618 
	C853.641418,597.339539 849.885437,612.707825 844.976990,627.698792 
	C835.829956,655.634277 822.617859,681.672241 806.336487,706.147461 
	C805.277954,707.738525 804.260193,709.356750 803.476562,710.570374 
	C640.779602,547.874146 478.141998,385.237335 315.473206,222.569275 
	C343.687317,203.358643 374.256744,187.720840 407.520935,177.992462 
	C425.311615,172.789444 443.443970,168.343811 461.713989,165.319473 
	C476.608459,162.853912 491.926910,162.806000 507.076172,162.077774 
	C515.900696,161.653580 524.812378,161.403351 533.595520,162.139862 
	C546.808044,163.247772 559.959778,165.162155 573.105835,166.963303 
	C592.724915,169.651260 611.662109,175.110550 630.280273,181.694504 
	C654.078125,190.110168 676.648193,201.010651 698.073425,214.454147 
	C714.776489,224.934662 730.426147,236.632507 745.230347,249.652710 
	C769.889709,271.340393 791.155457,295.873322 808.911011,323.446381 
	C831.112061,357.922974 846.961670,395.190002 855.743713,435.209930 
	C859.308838,451.456360 861.467957,468.125366 862.783447,484.719696 
	C864.132385,501.736725 864.525391,518.937561 863.729919,535.982910 
	C863.077087,549.970642 860.058533,563.847107 858.118103,577.777100 
	C857.957947,578.927185 858.023987,580.108765 857.951172,581.708618 
z"/>
</svg>