<svg width="21" height="20" viewBox="0 0 21 20" fill="none" xmlns="http://www.w3.org/2000/svg">
<path d="M3.5 3.875C3.5 3.39175 3.89175 3 4.375 3H6.25876C6.6865 3 7.05154 3.30924 7.12186 3.73115L7.76876 7.61254C7.83191 7.99144 7.64055 8.36723 7.29697 8.53901L5.94235 9.21632C6.91911 11.6435 8.85647 13.5809 11.2837 14.5576L11.961 13.203C12.1328 12.8595 12.5086 12.6681 12.8875 12.7312L16.7688 13.3781C17.1908 13.4485 17.5 13.8135 17.5 14.2412V16.125C17.5 16.6082 17.1082 17 16.625 17H14.875C8.59276 17 3.5 11.9072 3.5 5.625V3.875Z" fill="black"/>
</svg>
