<svg clip-rule="evenodd" fill-rule="evenodd" stroke-linejoin="round" stroke-miterlimit="2" viewBox="0 0 20 20" xmlns="http://www.w3.org/2000/svg"><g fill="#fff" fill-rule="nonzero" stroke="#000"><path d="m6.327 13.406v-5.43h-1.255v-1.391h2.987v6.821z" stroke-width=".3"/><path d="m14.568 8.346c0 .593-.321 1.119-.856 1.411.749.311 1.217.963 1.217 1.722 0 1.226-1.09 2.005-2.793 2.005s-2.793-.769-2.793-1.976c0-.778.506-1.44 1.294-1.751-.574-.321-.944-.866-.944-1.46 0-1.09.954-1.781 2.433-1.781 1.499 0 2.442.711 2.442 1.83zm-3.59 2.987c0 .574.409.895 1.158.895s1.167-.311 1.167-.895c0-.564-.418-.885-1.167-.885s-1.158.321-1.158.885zm.175-2.89c0 .487.35.759.983.759.632 0 .983-.272.983-.759 0-.506-.351-.788-.983-.788-.633 0-.983.282-.983.788z" stroke-width=".35"/><path d="m17.811 7.355c.288.849.434 1.738.434 2.645 0 4.546-3.699 8.245-8.245 8.245s-8.245-3.699-8.245-8.245 3.699-8.245 8.245-8.245c.907 0 1.796.146 2.645.434v-1.834c-.858-.236-1.744-.355-2.645-.355-5.514 0-10 4.486-10 10s4.486 10 10 10 10-4.486 10-10c0-.9-.119-1.787-.355-2.645z" stroke-width=".3"/><path d="m17.312 2.683v-1.918h-1.379v1.918h-1.906v1.378h1.906v1.918h1.379v-1.918h1.917v-1.378z" stroke-width=".25"/></g></svg>