<svg width="20" height="20" viewBox="0 0 20 20" fill="none" xmlns="http://www.w3.org/2000/svg">
<path fill-rule="evenodd" clip-rule="evenodd" d="M9.9999 19.5999C15.3018 19.5999 19.5999 15.3018 19.5999 9.9999C19.5999 4.69797 15.3018 0.399902 9.9999 0.399902C4.69797 0.399902 0.399902 4.69797 0.399902 9.9999C0.399902 15.3018 4.69797 19.5999 9.9999 19.5999ZM8.48331 6.37466C9.04941 5.43115 9.63531 5.1999 9.9999 5.1999C10.3645 5.1999 10.9504 5.43115 11.5165 6.37466C11.8575 6.94295 12.5946 7.12723 13.1629 6.78625C13.7312 6.44527 13.9155 5.70816 13.5745 5.13987C12.7347 3.74023 11.478 2.7999 9.9999 2.7999C8.52185 2.7999 7.26511 3.74023 6.42533 5.13987C6.08349 5.7096 5.81697 6.33917 5.62106 6.9999H5.1999C4.53716 6.9999 3.9999 7.53716 3.9999 8.1999C3.9999 8.86264 4.53716 9.3999 5.1999 9.3999H5.21595C5.20521 9.60033 5.1999 9.80056 5.1999 9.9999C5.1999 10.1992 5.20521 10.3995 5.21595 10.5999H5.1999C4.53716 10.5999 3.9999 11.1372 3.9999 11.7999C3.9999 12.4626 4.53716 12.9999 5.1999 12.9999H5.62106C5.81697 13.6606 6.08349 14.2902 6.42533 14.8599C7.26511 16.2596 8.52185 17.1999 9.9999 17.1999C11.478 17.1999 12.7347 16.2596 13.5745 14.8599C13.9155 14.2916 13.7312 13.5545 13.1629 13.2136C12.5946 12.8726 11.8575 13.0569 11.5165 13.6251C10.9504 14.5687 10.3645 14.7999 9.9999 14.7999C9.63531 14.7999 9.04941 14.5687 8.48331 13.6251C8.36703 13.4313 8.26122 13.2221 8.16649 12.9999H9.9999C10.6626 12.9999 11.1999 12.4626 11.1999 11.7999C11.1999 11.1372 10.6626 10.5999 9.9999 10.5999H7.62024C7.60676 10.4019 7.5999 10.2016 7.5999 9.9999C7.5999 9.7982 7.60676 9.59788 7.62024 9.3999H9.9999C10.6626 9.3999 11.1999 8.86264 11.1999 8.1999C11.1999 7.53716 10.6626 6.9999 9.9999 6.9999H8.16649C8.26122 6.77775 8.36703 6.56846 8.48331 6.37466Z" fill="#1C2028"/>
</svg>
