<svg width="24" height="24" viewBox="0 0 24 24" fill="none" xmlns="http://www.w3.org/2000/svg">
<g id="Icon">
<path id="Vector" d="M22 5.89399C21.2648 6.21572 20.4735 6.43273 19.6433 6.52985C20.491 6.03027 21.1409 5.23895 21.4475 4.29495C20.6546 4.75816 19.7768 5.09427 18.8418 5.27572C18.0936 4.49078 17.0271 4 15.8469 4C13.5811 4 11.744 5.80846 11.744 8.03937C11.744 8.3555 11.7802 8.66364 11.8504 8.95978C8.44013 8.79113 5.41636 7.18329 3.39253 4.73937C3.03932 5.33566 2.83714 6.02947 2.83714 6.77044C2.83714 8.17165 3.56142 9.4082 4.66244 10.1324C3.99013 10.1112 3.35721 9.92936 2.80385 9.62682C2.80344 9.6436 2.80344 9.66079 2.80344 9.67797C2.80344 11.6347 4.21789 13.2669 6.09516 13.6386C5.75089 13.7305 5.38834 13.7801 5.01403 13.7801C4.74932 13.7801 4.49234 13.7549 4.24184 13.7073C4.76435 15.312 6.27948 16.4802 8.07474 16.5126C6.67044 17.596 4.90157 18.2419 2.97883 18.2419C2.64795 18.2419 2.32113 18.2227 2 18.1851C3.81637 19.3318 5.97296 20 8.28991 20C15.8376 20 19.9644 13.8452 19.9644 8.50737C19.9644 8.33232 19.9607 8.15767 19.953 7.98421C20.7544 7.4159 21.4503 6.7041 22 5.89399Z" fill="#EEF4F9"/>
</g>
</svg>
