<svg width="20" height="20" viewBox="0 0 20 20" fill="none" xmlns="http://www.w3.org/2000/svg">
<g clip-path="url(#clip0_2182_14280)">
<path d="M18.25 5H15.25V2C15.25 1.60218 15.092 1.22064 14.8107 0.93934C14.5294 0.658035 14.1478 0.5 13.75 0.5H1.75C1.35218 0.5 0.970644 0.658035 0.68934 0.93934C0.408035 1.22064 0.25 1.60218 0.25 2V14C0.25044 14.1411 0.290675 14.2792 0.366083 14.3985C0.441491 14.5177 0.549012 14.6133 0.676294 14.6742C0.803577 14.7351 0.945457 14.7589 1.08564 14.7428C1.22581 14.7266 1.3586 14.6713 1.46875 14.5831L4.75 11.9375V14.75C4.75 15.1478 4.90804 15.5294 5.18934 15.8107C5.47064 16.092 5.85218 16.25 6.25 16.25H15.0241L18.5312 19.0831C18.664 19.1905 18.8293 19.2493 19 19.25C19.1989 19.25 19.3897 19.171 19.5303 19.0303C19.671 18.8897 19.75 18.6989 19.75 18.5V6.5C19.75 6.10218 19.592 5.72064 19.3107 5.43934C19.0294 5.15804 18.6478 5 18.25 5ZM4.23906 10.4169L1.75 12.4297V2H13.75V10.25H4.71063C4.53897 10.25 4.37252 10.3089 4.23906 10.4169ZM18.25 16.9297L15.7609 14.9169C15.6282 14.8095 15.4629 14.7507 15.2922 14.75H6.25V11.75H13.75C14.1478 11.75 14.5294 11.592 14.8107 11.3107C15.092 11.0294 15.25 10.6478 15.25 10.25V6.5H18.25V16.9297Z" fill="#7C838D"/>
</g>
<defs>
<clipPath id="clip0_2182_14280">
<rect width="20" height="19" fill="white" transform="translate(0 0.5)"/>
</clipPath>
</defs>
</svg>
