<svg width="18" height="18" viewBox="0 0 18 18" fill="none" xmlns="http://www.w3.org/2000/svg">
<g>
<path d="M7.49951 17.25C7.49951 17.4489 7.42049 17.6397 7.27984 17.7803C7.13919 17.921 6.94842 18 6.74951 18H1.49951C1.10169 18 0.720156 17.842 0.438851 17.5607C0.157547 17.2794 -0.000488281 16.8978 -0.000488281 16.5V1.5C-0.000488281 1.10218 0.157547 0.720644 0.438851 0.43934C0.720156 0.158035 1.10169 0 1.49951 0H6.74951C6.94842 0 7.13919 0.0790178 7.27984 0.21967C7.42049 0.360322 7.49951 0.551088 7.49951 0.75C7.49951 0.948912 7.42049 1.13968 7.27984 1.28033C7.13919 1.42098 6.94842 1.5 6.74951 1.5H1.49951V16.5H6.74951C6.94842 16.5 7.13919 16.579 7.27984 16.7197C7.42049 16.8603 7.49951 17.0511 7.49951 17.25ZM17.7801 8.46937L14.0301 4.71937C13.8894 4.57864 13.6985 4.49958 13.4995 4.49958C13.3005 4.49958 13.1096 4.57864 12.9689 4.71937C12.8282 4.86011 12.7491 5.05098 12.7491 5.25C12.7491 5.44902 12.8282 5.63989 12.9689 5.78063L15.4392 8.25H6.74951C6.5506 8.25 6.35983 8.32902 6.21918 8.46967C6.07853 8.61032 5.99951 8.80109 5.99951 9C5.99951 9.19891 6.07853 9.38968 6.21918 9.53033C6.35983 9.67098 6.5506 9.75 6.74951 9.75H15.4392L12.9689 12.2194C12.8282 12.3601 12.7491 12.551 12.7491 12.75C12.7491 12.949 12.8282 13.1399 12.9689 13.2806C13.1096 13.4214 13.3005 13.5004 13.4995 13.5004C13.6985 13.5004 13.8894 13.4214 14.0301 13.2806L17.7801 9.53063C17.8499 9.46097 17.9052 9.37825 17.9429 9.2872C17.9807 9.19616 18.0001 9.09856 18.0001 9C18.0001 8.90144 17.9807 8.80384 17.9429 8.7128C17.9052 8.62175 17.8499 8.53903 17.7801 8.46937Z" fill="#9FCBEE"/>
</g>
<defs>
<clipPath>
<rect width="18.0006" height="18" fill="white" transform="translate(-0.000488281)"/>
</clipPath>
</defs>
</svg>
