<svg width="22" height="22" viewBox="0 0 22 22" fill="none" xmlns="http://www.w3.org/2000/svg">
<g clip-path="url(#clip0_2182_14223)">
<path d="M21.4251 8.62075C21.3342 8.3408 21.1631 8.09375 20.9328 7.91038C20.7026 7.72701 20.4236 7.61542 20.1304 7.5895L14.5626 7.1095L12.3801 1.9195C12.2664 1.64717 12.0748 1.41455 11.8292 1.25093C11.5836 1.08731 11.2952 1 11.0001 1C10.705 1 10.4165 1.08731 10.1709 1.25093C9.92537 1.41455 9.7337 1.64717 9.62007 1.9195L7.44413 7.1095L1.86976 7.59231C1.57542 7.61705 1.29493 7.72813 1.06347 7.91164C0.832008 8.09515 0.65988 8.34291 0.568668 8.62385C0.477457 8.9048 0.471222 9.20642 0.550747 9.49089C0.630272 9.77536 0.792015 10.03 1.01569 10.2229L5.24476 13.9186L3.97726 19.4067C3.91023 19.6939 3.92936 19.9945 4.03224 20.2709C4.13512 20.5472 4.31719 20.7872 4.55569 20.9606C4.79419 21.1341 5.07853 21.2334 5.37317 21.2462C5.66781 21.2589 5.95967 21.1845 6.21226 21.0323L10.9935 18.1261L15.7851 21.0323C16.0377 21.1845 16.3295 21.2589 16.6242 21.2462C16.9188 21.2334 17.2031 21.1341 17.4416 20.9606C17.6801 20.7872 17.8622 20.5472 17.9651 20.2709C18.068 19.9945 18.0871 19.6939 18.0201 19.4067L16.7535 13.9129L20.9816 10.2229C21.2053 10.0294 21.3667 9.77397 21.4456 9.48889C21.5245 9.20382 21.5174 8.90178 21.4251 8.62075ZM19.9982 9.0895L15.7701 12.7795C15.5643 12.9585 15.4112 13.1902 15.3273 13.4497C15.2434 13.7092 15.2318 13.9867 15.2938 14.2523L16.5641 19.7498L11.7763 16.8436C11.5427 16.7013 11.2745 16.6261 11.001 16.6261C10.7275 16.6261 10.4593 16.7013 10.2257 16.8436L5.44444 19.7498L6.70632 14.2561C6.76834 13.9905 6.75676 13.713 6.67285 13.4535C6.58893 13.194 6.43585 12.9623 6.23007 12.7833L2.00007 9.09513C1.99973 9.09232 1.99973 9.08949 2.00007 9.08669L7.57257 8.60481C7.84463 8.58083 8.10499 8.48303 8.32555 8.32194C8.54611 8.16086 8.7185 7.94262 8.82413 7.69075L11.0001 2.50731L13.1751 7.69075C13.2807 7.94262 13.4531 8.16086 13.6737 8.32194C13.8942 8.48303 14.1546 8.58083 14.4266 8.60481L20.0001 9.08669C20.0001 9.08669 20.0001 9.09231 20.0001 9.09325L19.9982 9.0895Z" fill="#1D394F"/>
</g>
<defs>
<clipPath id="clip0_2182_14223">
<rect width="22" height="21" fill="white" transform="translate(0 0.5)"/>
</clipPath>
</defs>
</svg>
