<?xml version="1.0" encoding="utf-8"?>
<!-- Generator: Adobe Illustrator 26.5.0, SVG Export Plug-In . SVG Version: 6.00 Build 0)  -->
<svg version="1.1"
	 id="svg10" xmlns:dc="http://purl.org/dc/elements/1.1/" xmlns:svg="http://www.w3.org/2000/svg" xmlns:cc="http://creativecommons.org/ns#" xmlns:rdf="http://www.w3.org/1999/02/22-rdf-syntax-ns#" xmlns:inkscape="http://www.inkscape.org/namespaces/inkscape" xmlns:sodipodi="http://sodipodi.sourceforge.net/DTD/sodipodi-0.dtd" inkscape:version="0.92.4 (5da689c313, 2019-01-14)" sodipodi:docname="neteller-ar21.svg"
	 xmlns="http://www.w3.org/2000/svg" xmlns:xlink="http://www.w3.org/1999/xlink" x="0px" y="0px" viewBox="0 0 120 60"
	 style="enable-background:new 0 0 120 60;" xml:space="preserve">
<style type="text/css">
	.st0{fill-rule:evenodd;clip-rule:evenodd;fill:#8DC640;}
</style>
<sodipodi:namedview  bordercolor="#666666" borderopacity="1" gridtolerance="10" guidetolerance="10" id="namedview12" inkscape:current-layer="svg10" inkscape:cx="14.011799" inkscape:cy="30" inkscape:pageopacity="0" inkscape:pageshadow="2" inkscape:window-height="1001" inkscape:window-maximized="1" inkscape:window-width="1920" inkscape:window-x="-9" inkscape:window-y="-9" inkscape:zoom="3.39" objecttolerance="10" pagecolor="#ffffff" showgrid="false">
	</sodipodi:namedview>
<path id="Shape" inkscape:connector-curvature="0" class="st0" d="M112.2,28.7c-0.7,0.5-1.7,0.7-3,0.7h-0.6h-0.8l1-5.5h0.5h0.5
	c1.1,0,1.9,0.2,2.5,0.5c0.4,0.3,1,0.8,1,1.9C113.3,27.7,112.7,28.3,112.2,28.7L112.2,28.7z M32,35.6H21.6l0.7-3.6h6.5l0.7-4h-6.5
	l0.6-3.5h10.4L32,35.6z M117.8,21.3c-1.5-1-3.8-1.6-6.9-1.6H103l-3,15.8H89.6l0.7-3.6h6.3l0.7-4L91,28l0.7-3.6h6.5l0.9-4.6H85.9
	l-2.8,15h-4.8l2.8-15h-6.9l-2.8,15h-4.7l2.8-15h-6.9l-3,15.8H49.3L50,32h6.3l0.7-4l-6.3,0l0.7-3.6h6.5l0.9-4.6H17.9l-2.3,12.5
	l-4.6-12.5H3.8L0,40.2h6.8l2.3-12.9l4.5,12.9H38l3-15.8h3.8l-3,15.8h64.1l1.9-10l3,10h6.8l-3.1-8.1l0.7-0.2c1.6-0.3,2.8-1,3.6-2.1
	c0.9-1.1,1.3-2.5,1.3-4.1C120,23.8,119.3,22.3,117.8,21.3L117.8,21.3z"/>
</svg>
