<?xml version="1.0" encoding="utf-8"?>
<!-- Generator: Adobe Illustrator 26.5.0, SVG Export Plug-In . SVG Version: 6.00 Build 0)  -->
<svg version="1.1" id="Layer_1" xmlns="http://www.w3.org/2000/svg" xmlns:xlink="http://www.w3.org/1999/xlink" x="0px" y="0px"
	 viewBox="0 0 129 49" style="enable-background:new 0 0 129 49;" xml:space="preserve">
<style type="text/css">
	.st0{fill:#0070E0;}
	.st1{fill:#003087;}
</style>
<path class="st0" d="M118,11.4l-4,25.2c-0.1,0.4,0.2,0.7,0.5,0.7c0,0,0.1,0,0.1,0h4.7c0.3,0,0.6-0.2,0.7-0.6l4-25.2
	c0.1-0.4-0.2-0.7-0.5-0.7c0,0-0.1,0-0.1,0h-4.7C118.4,10.9,118.1,11.1,118,11.4z M112.9,18.8h-4.5c-0.3,0-0.6,0.2-0.7,0.6l-0.1,0.9
	c0,0-3.5-3.8-9.7-1.2c-3.6,1.5-5.3,4.5-6,6.7c0,0-2.3,6.8,2.9,10.5c0,0,4.8,3.6,10.3-0.2l-0.1,0.6c0,0.3,0.1,0.6,0.4,0.7
	c0.1,0,0.2,0.1,0.3,0.1h4.5c0.3,0,0.6-0.2,0.7-0.6l2.7-17.3c0-0.2,0-0.4-0.1-0.5C113.3,18.9,113.1,18.8,112.9,18.8L112.9,18.8z
	 M106.3,28.3c-0.2,1.2-0.8,2.3-1.7,3.1c-0.9,0.8-2.1,1.2-3.3,1.2c-0.5,0-1-0.1-1.4-0.2c-1.9-0.6-3.1-2.5-2.7-4.5
	c0.2-1.2,0.8-2.3,1.7-3.1c0.9-0.8,2.1-1.2,3.3-1.2c0.5,0,1,0.1,1.4,0.2C105.5,24.5,106.6,26.3,106.3,28.3L106.3,28.3L106.3,28.3z
	 M82.3,28.8c2.4,0,4.8-0.9,6.7-2.4c1.9-1.6,3.1-3.8,3.5-6.2c0.8-5-3.1-9.4-8.7-9.4h-9c-0.3,0-0.6,0.2-0.7,0.6l-4,25.2
	c0,0.3,0.1,0.6,0.4,0.7c0.1,0,0.2,0.1,0.3,0.1h4.8c0.3,0,0.6-0.2,0.7-0.6l1.2-7.4c0.1-0.3,0.4-0.6,0.7-0.6L82.3,28.8L82.3,28.8z
	 M86.2,20c-0.3,1.8-1.7,3.2-4.5,3.2h-3.5l1.1-6.7h3.5C85.6,16.5,86.5,18.1,86.2,20C86.2,20,86.2,20,86.2,20z"/>
<path class="st1" d="M64.6,19.2l-5.4,9.1l-2.8-9c-0.1-0.3-0.4-0.5-0.7-0.5h-4.9c-0.3,0-0.5,0.2-0.5,0.4c0,0.1,0,0.2,0,0.2l4.9,15.2
	l-4.5,7.2c-0.2,0.2-0.1,0.6,0.2,0.7c0,0,0,0,0,0c0.1,0,0.2,0.1,0.3,0.1h5.3c0.3,0,0.6-0.2,0.8-0.4l13.8-22.7c0.1-0.2,0.1-0.4,0-0.5
	c-0.1-0.2-0.3-0.3-0.5-0.3h-5.3C65,18.8,64.7,19,64.6,19.2z M48,18.8h-4.5c-0.3,0-0.6,0.2-0.7,0.6l-0.1,0.9c0,0-3.5-3.8-9.7-1.2
	c-3.6,1.5-5.3,4.5-6,6.7c0,0-2.3,6.8,2.9,10.5c0,0,4.8,3.6,10.3-0.2l-0.1,0.6c0,0.3,0.1,0.6,0.4,0.7c0.1,0,0.2,0.1,0.3,0.1h4.5
	c0.3,0,0.6-0.2,0.7-0.6l2.7-17.3c0-0.3-0.1-0.6-0.4-0.7C48.2,18.8,48.1,18.8,48,18.8L48,18.8z M41.4,28.3c-0.2,1.2-0.8,2.3-1.7,3.1
	c-0.9,0.8-2.1,1.2-3.3,1.2c-0.5,0-1-0.1-1.4-0.2c-1.9-0.6-3.1-2.5-2.7-4.5c0.2-1.2,0.8-2.3,1.7-3.1c0.9-0.8,2.1-1.2,3.4-1.2
	c0.5,0,1,0.1,1.4,0.2C40.6,24.5,41.7,26.3,41.4,28.3L41.4,28.3L41.4,28.3z M17.3,28.8c2.4,0,4.8-0.9,6.7-2.4
	c1.9-1.6,3.1-3.8,3.5-6.2c0.8-5-3.1-9.4-8.7-9.4h-9c-0.3,0-0.6,0.2-0.7,0.6l-4,25.2c0,0.3,0.1,0.6,0.4,0.7c0.1,0,0.2,0.1,0.3,0.1
	h4.7c0.3,0,0.6-0.2,0.7-0.6l1.2-7.4c0.1-0.3,0.4-0.6,0.7-0.6L17.3,28.8L17.3,28.8z M21.3,20c-0.3,1.8-1.7,3.2-4.5,3.2h-3.5l1.1-6.7
	h3.5C20.7,16.5,21.6,18.2,21.3,20C21.3,20,21.3,20,21.3,20z"/>
</svg>
