<svg width="53" height="36" viewBox="0 0 53 36" fill="none" xmlns="http://www.w3.org/2000/svg">
<g filter="url(#filter0_d_194_41579)">
<g clip-path="url(#clip0_194_41579)">
<rect x="4" y="2" width="45" height="28" rx="4" fill="#F8F9FA"/>
<path d="M24.2419 8.77418C24.2419 8.02902 24.8516 7.41934 25.5968 7.41934H27.8548V6.51611H25.5968C24.3492 6.51611 23.3387 7.5266 23.3387 8.77418H22.7798L12.5 13.9169V16.4516H13.4032V18.258H14.3065V25.4839H13.4032V27.2903H12.5V30H35.0806V27.2903H34.1774V25.4839H33.2742V18.258H34.1774V16.4516H35.0806V13.9169L24.8008 8.77418H24.2419ZM14.3065 26.3871H17.0161V27.2903H14.3065V26.3871ZM19.7258 18.258V25.4839H18.8226V27.2903H17.9194V25.4839H17.0161V18.258H17.9194V16.4516H18.8226V18.258H19.7258ZM25.1452 18.258V25.4839H24.2419V27.2903H23.3387V25.4839H22.4355V18.258H23.3387V16.4516H24.2419V18.258H25.1452ZM30.5645 18.258V25.4839H29.6613V27.2903H28.7581V25.4839H27.8548V18.258H28.7581V16.4516H29.6613V18.258H30.5645ZM33.2742 26.3871V27.2903H30.5645V26.3871H33.2742ZM31.4677 25.4839V18.258H32.371V25.4839H31.4677ZM27.8548 17.3548H25.1452V16.4516H27.8548V17.3548ZM26.9516 18.258V25.4839H26.0484V18.258H26.9516ZM27.8548 26.3871V27.2903H25.1452V26.3871H27.8548ZM22.4355 17.3548H19.7258V16.4516H22.4355V17.3548ZM21.5323 18.258V25.4839H20.629V18.258H21.5323ZM22.4355 26.3871V27.2903H19.7258V26.3871H22.4355ZM17.0161 17.3548H14.3065V16.4516H17.0161V17.3548ZM16.1129 18.258V25.4839H15.2097V18.258H16.1129ZM34.1774 28.1935V29.0968H13.4032V28.1935H34.1774ZM33.2742 17.3548H30.5645V16.4516H33.2742V17.3548ZM34.1774 15.5484H13.4032V14.4701L22.9944 9.6774H23.3387V12.8387H24.2419V9.6774H24.5863L34.1774 14.4701V15.5484Z" fill="black"/>
<path d="M16.1128 13.7419H31.4676V14.6452H16.1128V13.7419ZM35.5321 2C32.7942 2 30.5644 4.22984 30.5644 6.96774C30.5644 9.70565 32.7942 11.9355 35.5321 11.9355C38.2701 11.9355 40.4999 9.70565 40.4999 6.96774C40.4999 4.22984 38.2701 2 35.5321 2ZM35.5321 11.0323C33.291 11.0323 31.4676 9.20887 31.4676 6.96774C31.4676 4.72661 33.291 2.90323 35.5321 2.90323C37.7733 2.90323 39.5967 4.72661 39.5967 6.96774C39.5967 9.20887 37.7733 11.0323 35.5321 11.0323Z" fill="black"/>
<path d="M35.7976 8.80799C35.2387 8.80799 34.7476 8.42977 34.4823 7.8709H36.2435V7.09186H34.279C34.2734 7.02977 34.2734 6.96767 34.2734 6.89993C34.2734 6.83783 34.2734 6.77009 34.279 6.70799H36.2435V5.94025H34.4823C34.7476 5.38138 35.2387 5.00315 35.7976 5.00315C36.3339 5.00315 36.8363 5.3588 37.1129 5.9346L37.8129 5.60154C37.4064 4.75477 36.6331 4.22412 35.7976 4.22412C35.171 4.22412 34.5839 4.51202 34.1435 5.03702C33.9234 5.30235 33.754 5.60719 33.6468 5.94025H32.8V6.71928H33.5C33.4943 6.78138 33.4943 6.84348 33.4943 6.91122C33.4943 6.97331 33.4943 7.03541 33.5 7.10315H32.8056V7.8709H33.6524C33.7653 8.20396 33.929 8.5088 34.1492 8.77412C34.5839 9.29912 35.171 9.58702 35.8032 9.58702C36.6387 9.58702 37.4121 9.06202 37.8185 8.2096L37.1129 7.8709C36.8363 8.45235 36.3339 8.80799 35.7976 8.80799ZM28.7581 6.51606H29.6613V7.41928H28.7581V6.51606ZM37.7903 19.6128C37.7903 20.358 37.1806 20.9677 36.4355 20.9677H35.9839V21.8709H36.4355C37.6831 21.8709 38.6935 20.8604 38.6935 19.6128V12.387H37.7903V19.6128ZM34.1774 20.9677H35.0806V21.8709H34.1774V20.9677Z" fill="black"/>
</g>
<rect x="4.5" y="2.5" width="44" height="27" rx="3.5" stroke="#ADB5BD"/>
</g>
<defs>
<filter id="filter0_d_194_41579" x="0" y="0" width="53" height="36" filterUnits="userSpaceOnUse" color-interpolation-filters="sRGB">
<feFlood flood-opacity="0" result="BackgroundImageFix"/>
<feColorMatrix in="SourceAlpha" type="matrix" values="0 0 0 0 0 0 0 0 0 0 0 0 0 0 0 0 0 0 127 0" result="hardAlpha"/>
<feOffset dy="2"/>
<feGaussianBlur stdDeviation="2"/>
<feComposite in2="hardAlpha" operator="out"/>
<feColorMatrix type="matrix" values="0 0 0 0 0 0 0 0 0 0 0 0 0 0 0 0 0 0 0.075 0"/>
<feBlend mode="normal" in2="BackgroundImageFix" result="effect1_dropShadow_194_41579"/>
<feBlend mode="normal" in="SourceGraphic" in2="effect1_dropShadow_194_41579" result="shape"/>
</filter>
<clipPath id="clip0_194_41579">
<rect x="4" y="2" width="45" height="28" rx="4" fill="white"/>
</clipPath>
</defs>
</svg>
