<svg width="261" height="43" viewBox="0 0 261 43" fill="none" xmlns="http://www.w3.org/2000/svg">
<mask id="path-1-outside-1_404_26775" maskUnits="userSpaceOnUse" x="8.68066" y="14.1646" width="20" height="27" fill="black">
<rect fill="white" x="8.68066" y="14.1646" width="20" height="27"/>
<path d="M27.8581 19.6899C20.0678 23.0086 14.6516 30.8526 14.6516 39.9788H9.68066C9.68066 28.8916 16.2839 19.3128 25.7065 15.1646"/>
</mask>
<path d="M27.8581 19.6899C20.0678 23.0086 14.6516 30.8526 14.6516 39.9788H9.68066C9.68066 28.8916 16.2839 19.3128 25.7065 15.1646" fill="#00A453"/>
<path d="M14.6516 39.9788V40.9788C15.2039 40.9788 15.6516 40.5311 15.6516 39.9788H14.6516ZM9.68066 39.9788H8.68066C8.68066 40.5311 9.12838 40.9788 9.68066 40.9788V39.9788ZM27.4662 18.7699C19.3081 22.2452 13.6516 30.4507 13.6516 39.9788H15.6516C15.6516 31.2545 20.8274 23.7719 28.25 20.61L27.4662 18.7699ZM14.6516 38.9788H9.68066V40.9788H14.6516V38.9788ZM10.6807 39.9788C10.6807 29.2943 17.044 20.0708 26.1094 16.0798L25.3035 14.2493C15.5238 18.5548 8.68066 28.4889 8.68066 39.9788H10.6807Z" fill="black" mask="url(#path-1-outside-1_404_26775)"/>
<mask id="path-3-outside-2_404_26775" maskUnits="userSpaceOnUse" x="43.7742" y="14.0137" width="21" height="27" fill="black">
<rect fill="white" x="43.7742" y="14.0137" width="21" height="27"/>
<path d="M46.629 15.0137C56.2 19.162 62.9516 28.7407 62.9516 39.9788H57.9806C57.9806 30.8526 52.5645 23.084 44.7742 19.6899"/>
</mask>
<path d="M46.629 15.0137C56.2 19.162 62.9516 28.7407 62.9516 39.9788H57.9806C57.9806 30.8526 52.5645 23.084 44.7742 19.6899" fill="#EB212E"/>
<path d="M62.9516 39.9788V40.9788C63.5039 40.9788 63.9516 40.5311 63.9516 39.9788H62.9516ZM57.9806 39.9788H56.9806C56.9806 40.5311 57.4283 40.9788 57.9806 40.9788V39.9788ZM46.2313 15.9312C55.4484 19.9261 61.9516 29.1519 61.9516 39.9788H63.9516C63.9516 28.3295 56.9516 18.3978 47.0267 14.0961L46.2313 15.9312ZM62.9516 38.9788H57.9806V40.9788H62.9516V38.9788ZM58.9806 39.9788C58.9806 30.4452 53.3198 22.3223 45.1736 18.7731L44.3748 20.6067C51.8092 23.8457 56.9806 31.2599 56.9806 39.9788H58.9806Z" fill="black" mask="url(#path-3-outside-2_404_26775)"/>
<path d="M44.4949 20.1459C44.6183 20.2015 44.759 20.2046 44.8848 20.1546C45.0106 20.1047 45.1107 20.0058 45.1623 19.8807L47.0914 15.2044C47.1951 14.9529 47.0787 14.6647 46.8295 14.5556C40.3294 11.7127 32.6912 11.4042 25.5822 14.4794C25.3318 14.5877 25.2145 14.8768 25.3185 15.129L27.2476 19.8052C27.2986 19.9289 27.397 20.0269 27.5208 20.0775C27.6447 20.128 27.7836 20.1269 27.9065 20.0742C33.4163 17.7159 39.4286 17.8651 44.4949 20.1459Z" fill="white" stroke="black" stroke-miterlimit="2" stroke-linejoin="round"/>
<path d="M17.7676 21.1232C13.2024 25.7641 10.3358 32.0597 10.1355 39.0264H10.6357M17.7676 21.1232L58.3515 39.5264C58.1289 27.3079 48.3354 17.5028 36.316 17.5028C31.3259 17.4958 26.4828 19.2194 22.5865 22.3888M17.7676 21.1232C18.4158 20.464 19.0976 19.8399 19.8102 19.2534M17.7676 21.1232L19.8102 19.2534M10.6357 39.0264C10.6308 39.1927 10.6275 39.3594 10.6257 39.5264H14.2805M10.6357 39.0264C10.8358 32.196 13.6474 26.0247 18.1241 21.4738L18.1241 21.4737C18.7601 20.8271 19.4289 20.2148 20.1279 19.6395L20.1279 19.6395C24.5438 16.0047 30.157 13.8546 36.316 13.8546C43.4474 13.8546 49.8488 16.7381 54.5066 21.4724C58.9113 26.023 61.7221 32.1948 61.9911 39.0264H58.8374M10.6357 39.0264H13.7947M14.2805 39.5264C14.4074 32.5822 17.6252 26.4171 22.5865 22.3888M14.2805 39.5264L13.7806 39.5173C13.7836 39.3533 13.7883 39.1896 13.7947 39.0264M14.2805 39.5264V39.0264H13.7947M22.5865 22.3888L22.271 22.0009C22.2711 22.0008 22.2712 22.0007 22.2713 22.0006M22.5865 22.3888L22.2713 22.0006M58.8374 39.0264C58.3606 26.7729 48.455 17.003 36.3164 17.0028M58.8374 39.0264L36.3167 17.0028C36.3166 17.0028 36.3165 17.0028 36.3164 17.0028M58.8374 39.0264L36.3164 17.0028M36.3164 17.0028C31.2106 16.9957 26.2562 18.7593 22.2713 22.0006M13.7947 39.0264C14.0633 32.1313 17.3161 26.024 22.2713 22.0006M36.316 13.3546C43.587 13.3546 50.116 16.2961 54.8644 21.1232L36.316 13.3546ZM36.316 13.3546C30.0378 13.3546 24.313 15.5471 19.8102 19.2534M36.316 13.3546L19.8102 19.2534M57.0354 40.3561C57.0354 40.6322 57.2592 40.8561 57.5354 40.8561H57.7163C57.793 40.9039 57.8835 40.9315 57.9805 40.9315H63.4709C63.747 40.9315 63.9709 40.7077 63.9709 40.4315V39.979C63.9709 24.5487 51.5852 12.0249 36.3902 12.0249C21.1201 12.0249 8.80957 24.5496 8.80957 39.979V40.4315C8.80957 40.7077 9.03343 40.9315 9.30957 40.9315H15.0967C15.3728 40.9315 15.5967 40.7077 15.5967 40.4315V39.979C15.5967 34.0798 17.9167 28.8516 21.682 25.0976L21.682 25.0976L21.6888 25.0906C25.3808 21.2638 30.5939 18.9079 36.316 18.9079C42.0355 18.9079 47.177 21.2619 50.9467 25.0941C54.7165 28.9264 57.0354 34.157 57.0354 39.979V40.3561Z" fill="white" stroke="black" stroke-miterlimit="2" stroke-linejoin="round"/>
<path d="M41.8464 39.4436L65.4592 28.6677L65.4815 28.6575L65.5028 28.6452C66.1985 28.241 66.5694 27.4621 66.2317 26.661C65.8983 25.8702 65.005 25.5348 64.2375 25.8681C64.2369 25.8684 64.2364 25.8686 64.2358 25.8689L40.3968 36.0531C40.2708 35.9141 40.1294 35.7785 39.9723 35.6524L49.9833 11.3614C49.9836 11.3607 49.9839 11.3601 49.9841 11.3594C50.3048 10.5959 49.9886 9.69346 49.2029 9.35115C48.4703 9.03197 47.5336 9.31973 47.2716 10.1649L36.5836 34.4255H36.3903H36.3752C36.2098 34.4255 36.0492 34.4255 35.8755 34.4422L25.2754 10.2153C24.9545 9.45931 24.0723 9.07139 23.3418 9.43245C22.5659 9.77911 22.2551 10.6757 22.5739 11.4349C22.5742 11.4355 22.5745 11.4362 22.5747 11.4368L32.6718 35.9079C32.5692 36.0015 32.4734 36.0986 32.3813 36.2025L8.24809 25.8689C8.24762 25.8687 8.24714 25.8684 8.24667 25.8682C7.47911 25.5347 6.58557 25.8701 6.25217 26.661C5.92077 27.447 6.26816 28.2602 7.02813 28.5939L30.9575 39.5294C30.9395 39.6503 30.9194 39.803 30.9194 39.9789V40.4789H31.4194H41.3613H41.8613V39.9789C41.8613 39.9662 41.8613 39.9533 41.8613 39.9401C41.8614 39.7948 41.8616 39.6207 41.8464 39.4436Z" fill="white" stroke="black" stroke-miterlimit="10"/>
<path d="M38.414 8.79771C38.4053 8.93549 38.454 9.07072 38.5486 9.17134C38.6431 9.27197 38.775 9.32905 38.913 9.32905H40.6195C40.882 9.32905 41.0998 9.12599 41.1182 8.86409L41.2362 7.18548L41.4852 7.86886C41.5571 8.0663 41.7448 8.1977 41.955 8.1977H43.4388C43.649 8.1977 43.8367 8.0663 43.9086 7.86886L44.1576 7.18548L44.2755 8.86409C44.2939 9.12599 44.5118 9.32905 44.7743 9.32905H46.4808C46.6206 9.32905 46.7541 9.27047 46.8488 9.16753C46.9434 9.06459 46.9907 8.92671 46.979 8.78733L46.3855 1.69754C46.3638 1.43848 46.1472 1.23926 45.8872 1.23926H44.0324C43.819 1.23926 43.6291 1.37471 43.5596 1.57649L42.6227 4.29775L41.6858 1.57649C41.6163 1.37471 41.4264 1.23926 41.213 1.23926H39.3582C39.0942 1.23926 38.8757 1.44447 38.8592 1.70792L38.7524 3.40865C38.5669 2.9872 38.312 2.61641 37.9908 2.30449C37.2557 1.59066 36.2293 1.23926 35.055 1.23926H32.6066C32.3304 1.23926 32.1066 1.46312 32.1066 1.73926V6.64758L30.4097 1.58049C30.3415 1.37665 30.1506 1.23926 29.9356 1.23926H28.155C27.94 1.23926 27.7491 1.37665 27.6808 1.58049L25.3066 8.67028C25.2556 8.82279 25.281 8.99057 25.3749 9.12112C25.4689 9.25167 25.6199 9.32905 25.7808 9.32905H27.5614C27.783 9.32905 27.9782 9.18314 28.041 8.97057L28.3803 7.82058H29.7662L30.0436 8.94845C30.0986 9.17194 30.299 9.32905 30.5291 9.32905H32.3098C32.3607 9.32905 32.4106 9.32131 32.458 9.30659C32.5049 9.32119 32.5548 9.32905 32.6066 9.32905H35.055C36.2703 9.32905 37.2988 8.95631 38.024 8.23017C38.1988 8.05524 38.3527 7.86299 38.4857 7.6552L38.414 8.79771ZM29.0082 5.2804L29.0581 5.46296H28.9583L29.0082 5.2804ZM34.813 6.82058V3.74772H34.9808C35.4804 3.74772 35.819 3.88888 36.034 4.10747C36.2498 4.32685 36.4098 4.69396 36.4098 5.28415C36.4098 5.87435 36.2498 6.24146 36.034 6.46084C35.819 6.67942 35.4804 6.82058 34.9808 6.82058H34.813Z" fill="white" stroke="black" stroke-miterlimit="2" stroke-linejoin="round"/>
<g clip-path="url(#clip0_404_26775)">
<path d="M149.903 17.1351H151.584L149.292 10.4407H147.534L145.241 17.1351H146.923L147.305 15.7658H149.368L149.903 17.1351ZM148.451 11.9622C148.451 11.9622 148.604 12.7229 148.757 13.1032L149.139 14.3965H147.84L148.145 13.1032C148.298 12.7229 148.451 11.9622 148.451 11.9622ZM153.036 13.7879C153.036 15.994 154.641 17.2873 156.323 17.2873C157.469 17.2873 158.08 16.6787 158.08 16.6787V17.1351H159.456V13.3315H157.011V14.7008H157.928V15.2333C157.928 15.2333 157.316 15.6897 156.552 15.6897C155.482 15.6897 154.641 14.929 154.641 13.6358C154.641 12.6468 155.253 11.7339 156.628 11.7339C157.546 11.7339 158.233 12.3425 158.233 12.3425L158.998 11.1253C158.998 11.1253 158.157 10.2125 156.399 10.2125C154.489 10.3646 153.036 11.81 153.036 13.7879ZM161.902 17.1351H166.258V15.7658H163.583V14.4726H165.647V13.1032H163.583V11.8861H166.181V10.5168H161.902V17.1351ZM168.551 17.1351H170.232V14.0161C170.232 13.5597 170.156 12.875 170.156 12.875C170.156 12.875 170.461 13.5597 170.691 14.0161L172.601 17.1351H174.282V10.4407H172.601V13.5597C172.601 14.0161 172.678 14.7008 172.678 14.7008C172.678 14.7008 172.372 14.0161 172.143 13.5597L170.308 10.4407H168.627V17.1351H168.551ZM176.575 17.1351H181.848V15.7658H178.639C178.639 15.7658 178.868 15.5376 179.174 15.1572L181.772 11.5057V10.5168H176.652V11.8861H179.632C179.632 11.8861 179.403 12.1143 179.097 12.4947L176.499 16.1462V17.1351H176.575ZM184.141 17.1351H185.823V10.4407H184.141V17.1351ZM192.319 17.1351H194L191.707 10.4407H189.949L187.657 17.1351H189.338L189.72 15.7658H191.784L192.319 17.1351ZM190.867 11.9622C190.867 11.9622 191.019 12.7229 191.172 13.1032L191.554 14.3965H190.255L190.637 13.1032L190.867 11.9622ZM145.394 33.643H147.075L147.305 30.6001V29.459L147.687 30.6001L148.375 32.578H149.75L150.438 30.6001L150.82 29.459V30.6001L151.049 33.643H152.731L152.196 26.9486H150.438L149.445 29.7633C149.292 30.2197 149.139 30.9044 149.139 30.9044C149.139 30.9044 148.986 30.2197 148.833 29.7633L147.84 26.9486H146.082L145.394 33.643ZM153.113 30.2197C153.113 32.1976 154.565 33.7191 156.628 33.7191C158.692 33.7191 160.144 32.1976 160.144 30.2197C160.144 28.3179 158.692 26.7964 156.628 26.7964C154.641 26.7964 153.113 28.3179 153.113 30.2197ZM154.794 30.2197C154.794 29.1547 155.635 28.3179 156.628 28.3179C157.622 28.3179 158.463 29.1547 158.463 30.2197C158.463 31.3608 157.622 32.1976 156.628 32.1976C155.635 32.2737 154.794 31.3608 154.794 30.2197ZM160.755 33.643H162.437V30.524C162.437 30.0676 162.36 29.3829 162.36 29.3829C162.36 29.3829 162.666 30.0676 162.895 30.524L164.806 33.643H166.487V26.9486H164.806V30.0676C164.806 30.524 164.882 31.2087 164.882 31.2087C164.882 31.2087 164.577 30.524 164.347 30.0676L162.513 26.9486H160.832V33.643H160.755ZM167.099 30.2197C167.099 32.1976 168.551 33.7191 170.614 33.7191C172.678 33.7191 174.13 32.1976 174.13 30.2197C174.13 28.3179 172.678 26.7964 170.614 26.7964C168.627 26.7964 167.099 28.3179 167.099 30.2197ZM168.78 30.2197C168.78 29.1547 169.621 28.3179 170.614 28.3179C171.608 28.3179 172.448 29.1547 172.448 30.2197C172.448 31.3608 171.608 32.1976 170.614 32.1976C169.621 32.2737 168.78 31.3608 168.78 30.2197ZM174.817 33.643H176.499V31.589H177.645C178.944 31.589 179.861 30.6001 179.861 29.2308C179.861 27.8614 178.944 26.9486 177.645 26.9486H174.817V33.643ZM176.422 30.1436V28.3179H177.263C177.798 28.3179 178.104 28.6982 178.104 29.2308C178.104 29.7633 177.798 30.1436 177.263 30.1436H176.422ZM179.785 30.2197C179.785 32.1976 181.237 33.7191 183.301 33.7191C185.364 33.7191 186.816 32.1976 186.816 30.2197C186.816 28.3179 185.364 26.7964 183.301 26.7964C181.314 26.7964 179.785 28.3179 179.785 30.2197ZM181.543 30.2197C181.543 29.1547 182.383 28.3179 183.377 28.3179C184.371 28.3179 185.211 29.1547 185.211 30.2197C185.211 31.3608 184.371 32.1976 183.377 32.1976C182.307 32.2737 181.543 31.3608 181.543 30.2197ZM187.504 33.643H191.937V32.2737H189.185V26.9486H187.504V33.643ZM192.319 33.643H194V26.9486H192.319V33.643ZM145.394 25.351H147.763C149.903 25.351 151.202 24.0578 151.202 22.0038C151.202 19.8738 149.827 18.6566 147.763 18.6566H145.394V25.351ZM146.999 23.9817V20.102H147.687C148.833 20.102 149.521 20.7866 149.521 22.0038C149.521 23.2971 148.833 23.9817 147.687 23.9817H146.999ZM153.724 22.0038C153.724 23.9817 155.176 25.5032 157.24 25.5032C159.303 25.5032 160.755 23.9817 160.755 22.0038C160.755 20.102 159.303 18.5805 157.24 18.5805C155.176 18.5805 153.724 20.0259 153.724 22.0038ZM155.406 22.0038C155.406 20.9388 156.246 20.102 157.24 20.102C158.233 20.102 159.074 20.9388 159.074 22.0038C159.074 23.1449 158.233 23.9817 157.24 23.9817C156.17 23.9817 155.406 23.1449 155.406 22.0038ZM163.125 22.0038C163.125 24.2099 164.729 25.5032 166.411 25.5032C167.557 25.5032 168.169 24.8946 168.169 24.8946V25.351H169.544V21.5474H167.099V22.9928H168.016V23.5253C168.016 23.5253 167.404 23.9817 166.64 23.9817C165.57 23.9817 164.729 23.221 164.729 21.9277C164.729 20.9388 165.341 20.0259 166.716 20.0259C167.634 20.0259 168.321 20.6345 168.321 20.6345L169.086 19.4173C169.086 19.4173 168.245 18.5044 166.487 18.5044C164.653 18.5805 163.125 20.0259 163.125 22.0038ZM176.422 25.351H178.104L175.811 18.6566H174.053L171.76 25.351H173.442L173.824 23.9817H175.887L176.422 25.351ZM174.97 20.1781C174.97 20.1781 175.123 20.9388 175.276 21.3191L175.658 22.6124H174.359L174.741 21.3191L174.97 20.1781ZM180.626 25.351H182.307V22.232C182.307 21.7756 182.231 21.0909 182.231 21.0909C182.231 21.0909 182.536 21.7756 182.766 22.232L184.676 25.351H186.358V18.6566H184.676V21.7756C184.676 22.232 184.753 22.9167 184.753 22.9167C184.753 22.9167 184.447 22.232 184.218 21.7756L182.383 18.6566H180.702V25.351H180.626ZM189.644 25.351H194V23.9817H191.325V22.6885H193.389V21.3191H191.325V20.102H193.924V18.7327H189.72V25.351H189.644ZM139.891 0.855469H140.426V43H139.891V0.855469ZM113.831 1.00762L114.442 2.7573L116.276 2.83337L114.901 3.97447L115.359 5.72415L113.831 4.7352L112.226 5.72415L112.761 3.97447L111.309 2.83337L113.143 2.7573L113.831 1.00762ZM124.377 3.8984L124.072 5.72415L125.6 6.7131L123.842 7.0174L123.307 8.76708L122.543 7.09347L120.632 7.24562L122.008 5.95237L121.32 4.20269L122.925 5.03949L124.377 3.8984ZM132.02 11.5818L130.873 12.9511L131.714 14.6247L129.956 13.9401L128.657 15.2333L128.81 13.4075L127.129 12.5707L128.886 12.1143L129.192 10.2885L130.186 11.81L132.02 11.5818ZM134.847 22.0038L133.09 22.6124L133.013 24.4382L131.867 23.0688L130.109 23.5253L131.103 22.0038L130.109 20.4823L131.867 20.9388L133.013 19.4934L133.09 21.3191L134.847 22.0038ZM132.02 32.5019L130.186 32.1976L129.192 33.7191L128.886 31.9694L127.129 31.513L128.81 30.6761L128.657 28.8504L129.956 30.1436L131.714 29.459L130.873 31.0565L132.02 32.5019ZM124.53 40.1092L123.078 38.9681L121.397 39.8049L122.085 38.0552L120.709 36.8381L122.543 36.9141L123.384 35.2405L123.919 36.9902L125.677 37.2945L124.148 38.2835L124.53 40.1092ZM113.754 43L113.143 41.3264L111.309 41.2503L112.684 40.0331L112.226 38.2835L113.754 39.2724L115.283 38.2835L114.824 40.0331L116.276 41.1742L114.442 41.3264L113.754 43ZM103.361 40.2614L103.59 38.4356L102.061 37.5227L103.896 37.2184L104.354 35.3927L105.195 37.0663L107.029 36.9141L105.73 38.2074L106.418 39.9571L104.736 39.1203L103.361 40.2614ZM95.6417 32.8062L96.7881 31.3608L95.871 29.6872L97.6287 30.3719L98.9279 29.0025L98.8515 30.8283L100.456 31.6651L98.6987 32.1976L98.4694 33.9473L97.4759 32.4258L95.6417 32.8062ZM92.6611 22.0799L94.3425 21.3952L94.4189 19.5695L95.6417 21.0149L97.3995 20.4823L96.4059 22.0799L97.3995 23.6013L95.6417 23.1449L94.4953 24.5142L94.3425 22.6885L92.6611 22.0799ZM95.4124 11.5818L97.2466 11.8861L98.2401 10.3646L98.5458 12.1143L100.304 12.5707L98.6987 13.4075L98.7751 15.2333L97.4759 13.9401L95.7945 14.6247L96.6352 13.0272L95.4124 11.5818ZM103.208 3.82232L104.66 4.96342L106.265 4.12661L105.653 5.8763L106.953 7.16954L105.118 7.09347L104.278 8.691L103.819 6.94132L101.985 6.63703L103.513 5.64808L103.208 3.82232ZM111.614 19.1891C112.99 19.7216 113.984 20.102 115.13 20.4823C116.353 20.8627 117.652 21.0909 119.028 21.0909C120.403 21.0909 121.702 20.8627 123.002 20.4823C123.766 20.2541 124.377 19.8738 124.989 19.4173L127.052 17.8959H116.888L113.831 7.93027L110.697 17.8959H107.87C109.169 18.2762 110.392 18.7327 111.614 19.1891Z" fill="white" stroke="black" stroke-width="0.15085" stroke-miterlimit="2" stroke-linejoin="round"/>
<path d="M105.5 20.1782C107.564 20.7107 109.627 21.4714 111.614 22.2322C112.99 22.7647 113.984 23.1451 115.13 23.5254C116.353 23.9058 117.576 24.134 118.875 24.134L121.015 22.4604C120.327 22.5365 119.639 22.6125 118.951 22.6125C117.576 22.6125 116.276 22.3843 115.054 22.004C113.907 21.6236 112.914 21.2432 111.538 20.7107C109.551 19.95 107.564 19.1892 105.424 18.6567C104.354 18.3524 103.284 18.2764 102.138 18.2764H102.061C101.679 18.2764 101.374 18.2764 100.991 18.3524L102.902 19.7978C103.896 19.8739 104.736 19.95 105.5 20.1782Z" fill="#00A557" stroke="black" stroke-width="0.15085" stroke-miterlimit="2" stroke-linejoin="round"/>
<path d="M108.786 24.2101C109.78 24.5144 110.697 24.8948 111.691 25.2751C113.066 25.8077 114.06 26.188 115.206 26.5684C116.429 26.9488 117.728 27.177 119.104 27.177H119.715L119.257 25.6555H119.104C117.728 25.6555 116.429 25.4273 115.206 25.0469C114.06 24.6666 113.066 24.2862 111.691 23.7537C109.704 22.993 107.717 22.2322 105.577 21.6997L108.786 24.2101Z" fill="#D93740" stroke="black" stroke-width="0.15085" stroke-miterlimit="2" stroke-linejoin="round"/>
<path d="M119.104 28.6219C117.729 28.6219 116.429 28.3937 115.207 28.0133C114.06 27.633 113.067 27.2526 111.691 26.7201C110.621 26.3397 109.475 25.8833 108.405 25.5029L105.73 34.2513L113.831 28.0894L121.932 34.2513L120.174 28.5459C119.792 28.6219 119.41 28.6219 119.104 28.6219Z" fill="white" stroke="black" stroke-width="0.15085" stroke-miterlimit="2" stroke-linejoin="round"/>
</g>
<g clip-path="url(#clip1_404_26775)">
<path d="M225.603 28.8229V17.1484H222.905V14.1577H229.327V28.8229H225.603Z" fill="white" stroke="black" stroke-width="0.375" stroke-miterlimit="2" stroke-linejoin="round"/>
<path d="M243.321 17.9438C243.321 19.2187 242.631 20.3496 241.481 20.9774C243.091 21.6461 244.097 23.0479 244.097 24.6797C244.097 27.3156 241.754 28.9905 238.092 28.9905C234.431 28.9905 232.087 27.3371 232.087 24.7421C232.087 23.0694 233.175 21.6461 234.87 20.9774C233.635 20.2873 232.84 19.1155 232.84 17.8384C232.84 15.4949 234.891 14.0093 238.071 14.0093C241.294 14.0093 243.321 15.5379 243.321 17.9438ZM235.603 24.3658C235.603 25.5999 236.482 26.2901 238.092 26.2901C239.703 26.2901 240.601 25.6214 240.601 24.3658C240.601 23.1532 239.703 22.4631 238.092 22.4631C236.482 22.4631 235.603 23.1532 235.603 24.3658ZM235.979 18.1523C235.979 19.1994 236.731 19.7842 238.092 19.7842C239.451 19.7842 240.206 19.1994 240.206 18.1523C240.206 17.0644 239.451 16.4581 238.092 16.4581C236.731 16.4581 235.979 17.0644 235.979 18.1523Z" fill="white" stroke="black" stroke-width="0.4375" stroke-miterlimit="2" stroke-linejoin="round"/>
<path d="M250.294 15.8133C250.913 17.6386 251.227 19.55 251.227 21.5C251.227 31.2739 243.274 39.2268 233.5 39.2268C223.726 39.2268 215.773 31.2739 215.773 21.5C215.773 11.7261 223.726 3.77326 233.5 3.77326C235.45 3.77326 237.361 4.08716 239.187 4.70636V0.763262C237.334 0.254688 235.421 -0.00203638 233.5 1.21632e-05C221.645 1.21632e-05 212 9.64491 212 21.5C212 33.3551 221.645 43 233.5 43C245.355 43 255 33.3551 255 21.5C255 19.565 254.744 17.658 254.237 15.8133H250.294Z" fill="white" stroke="black" stroke-width="0.375" stroke-miterlimit="2" stroke-linejoin="round"/>
<path d="M249.221 5.76823V1.64453H246.256V5.76823H242.158V8.73093H246.256V12.8546H249.221V8.73093H253.342V5.76823H249.221Z" fill="white" stroke="black" stroke-width="0.3125" stroke-miterlimit="2" stroke-linejoin="round"/>
</g>
<defs>
<clipPath id="clip0_404_26775">
<rect width="100" height="42" fill="white" transform="translate(94)"/>
</clipPath>
<clipPath id="clip1_404_26775">
<rect width="43" height="43" fill="white" transform="translate(218)"/>
</clipPath>
</defs>
</svg>
