<svg width="24" height="24" viewBox="0 0 24 24" fill="none" xmlns="http://www.w3.org/2000/svg">
<path d="M4.7999 4.7998C3.47442 4.7998 2.3999 5.87432 2.3999 7.19981V8.3998H21.5999V7.1998C21.5999 5.87432 20.5254 4.7998 19.1999 4.7998H4.7999Z" fill="white"/>
<path fill-rule="evenodd" clip-rule="evenodd" d="M21.5999 10.7998H2.3999V16.7998C2.3999 18.1253 3.47442 19.1998 4.7999 19.1998H19.1999C20.5254 19.1998 21.5999 18.1253 21.5999 16.7998V10.7998ZM4.7999 15.5998C4.7999 14.9371 5.33716 14.3998 5.9999 14.3998H7.1999C7.86264 14.3998 8.3999 14.9371 8.3999 15.5998C8.3999 16.2625 7.86264 16.7998 7.1999 16.7998H5.9999C5.33716 16.7998 4.7999 16.2625 4.7999 15.5998ZM10.7999 14.3998C10.1372 14.3998 9.5999 14.9371 9.5999 15.5998C9.5999 16.2625 10.1372 16.7998 10.7999 16.7998H11.9999C12.6626 16.7998 13.1999 16.2625 13.1999 15.5998C13.1999 14.9371 12.6626 14.3998 11.9999 14.3998H10.7999Z" fill="white"/>
</svg>
