<svg width="20" height="20" viewBox="0 0 20 20" fill="none" xmlns="http://www.w3.org/2000/svg">
<path fill-rule="evenodd" clip-rule="evenodd" d="M10 17C13.866 17 17 13.866 17 10C17 6.13401 13.866 3 10 3C6.13401 3 3 6.13401 3 10C3 13.866 6.13401 17 10 17ZM13.2437 9.38128L10.6187 6.75628C10.277 6.41457 9.72299 6.41457 9.38128 6.75628C9.03957 7.09799 9.03957 7.65201 9.38128 7.99372L10.5126 9.125L7.375 9.125C6.89175 9.125 6.5 9.51675 6.5 10C6.5 10.4832 6.89175 10.875 7.375 10.875H10.5126L9.38128 12.0063C9.03957 12.348 9.03957 12.902 9.38128 13.2437C9.72299 13.5854 10.277 13.5854 10.6187 13.2437L13.2437 10.6187C13.5854 10.277 13.5854 9.72299 13.2437 9.38128Z" fill="#111827"/>
</svg>
