<svg width="21" height="20" viewBox="0 0 21 20" fill="none" xmlns="http://www.w3.org/2000/svg">
<path d="M12.8333 6.49984C12.8333 7.7885 11.7887 8.83317 10.5 8.83317C9.21134 8.83317 8.16667 7.7885 8.16667 6.49984C8.16667 5.21117 9.21134 4.1665 10.5 4.1665C11.7887 4.1665 12.8333 5.21117 12.8333 6.49984Z" fill="black"/>
<path d="M16.7222 8.05539C16.7222 8.9145 16.0258 9.61095 15.1667 9.61095C14.3076 9.61095 13.6111 8.9145 13.6111 8.05539C13.6111 7.19628 14.3076 6.49984 15.1667 6.49984C16.0258 6.49984 16.7222 7.19628 16.7222 8.05539Z" fill="black"/>
<path d="M13.6111 13.4998C13.6111 11.7816 12.2182 10.3887 10.5 10.3887C8.78178 10.3887 7.38889 11.7816 7.38889 13.4998V15.8332H13.6111V13.4998Z" fill="black"/>
<path d="M7.38889 8.05539C7.38889 8.9145 6.69244 9.61095 5.83333 9.61095C4.97422 9.61095 4.27778 8.9145 4.27778 8.05539C4.27778 7.19628 4.97422 6.49984 5.83333 6.49984C6.69244 6.49984 7.38889 7.19628 7.38889 8.05539Z" fill="black"/>
<path d="M15.1667 15.8332V13.4998C15.1667 12.6799 14.9552 11.9094 14.5839 11.2399C14.7702 11.192 14.9654 11.1665 15.1667 11.1665C16.4553 11.1665 17.5 12.2112 17.5 13.4998V15.8332H15.1667Z" fill="black"/>
<path d="M6.41609 11.2399C6.04477 11.9094 5.83333 12.6799 5.83333 13.4998V15.8332H3.5V13.4998C3.5 12.2112 4.54467 11.1665 5.83333 11.1665C6.03455 11.1665 6.22982 11.192 6.41609 11.2399Z" fill="black"/>
</svg>
