<svg width="24" height="24" viewBox="0 0 24 24" fill="none" xmlns="http://www.w3.org/2000/svg">
<path fill-rule="evenodd" clip-rule="evenodd" d="M3.6001 6.0001C3.6001 4.67461 4.67461 3.6001 6.0001 3.6001H18.0001C19.3256 3.6001 20.4001 4.67461 20.4001 6.0001V15.6001C20.4001 16.9256 19.3256 18.0001 18.0001 18.0001H15.3371L15.4837 18.5866L16.4487 19.5516C16.7919 19.8948 16.8945 20.4109 16.7088 20.8593C16.5231 21.3077 16.0855 21.6001 15.6001 21.6001H8.40013C7.91478 21.6001 7.47721 21.3077 7.29148 20.8593C7.10574 20.4109 7.20841 19.8948 7.5516 19.5516L8.51658 18.5866L8.6632 18.0001H6.0001C4.67461 18.0001 3.6001 16.9256 3.6001 15.6001V6.0001ZM10.5257 14.4001C10.508 14.3997 10.4904 14.3997 10.4728 14.4001H6.0001V6.0001H18.0001V14.4001H13.5275C13.5099 14.3997 13.4923 14.3997 13.4746 14.4001H10.5257Z" fill="white"/>
</svg>
