<?xml version="1.0" encoding="iso-8859-1"?>
<!-- Generator: Adobe Illustrator 16.0.0, SVG Export Plug-In . SVG Version: 6.00 Build 0)  -->
<!DOCTYPE svg PUBLIC "-//W3C//DTD SVG 1.1//EN" "http://www.w3.org/Graphics/SVG/1.1/DTD/svg11.dtd">
<svg version="1.1" id="Capa_1" xmlns="http://www.w3.org/2000/svg" xmlns:xlink="http://www.w3.org/1999/xlink" x="0px" y="0px"
	 width="45.606px" height="45.606px" viewBox="0 0 45.606 45.606" style="enable-background:new 0 0 45.606 45.606;"
	 xml:space="preserve">
<g>
	<g id="Layer_1_copy_16_">
		<path d="M44.823,22.527c0.021,0.547-0.11,1.071-0.229,1.598c-0.211,0.952-0.428,1.903-0.639,2.856
			c-0.092,0.407-0.34,0.615-0.764,0.618c-0.438,0.003-0.875,0.001-1.312,0.001c-0.214,0-0.23-0.027-0.187-0.24
			c0.254-1.188,0.512-2.373,0.758-3.562c0.045-0.218,0.069-0.448,0.049-0.668c-0.04-0.402-0.317-0.627-0.723-0.639
			c-0.627-0.018-1.093,0.252-1.322,0.831c-0.162,0.406-0.264,0.84-0.36,1.268c-0.176,0.768-0.326,1.54-0.488,2.311
			c-0.102,0.469-0.391,0.701-0.867,0.701c-0.41,0-0.818,0-1.229,0c-0.188,0-0.213-0.033-0.174-0.218
			c0.348-1.638,0.693-3.272,1.041-4.91c0.264-1.245,0.529-2.49,0.785-3.736c0.031-0.145,0.086-0.19,0.23-0.187
			c0.445,0.009,0.893,0.002,1.338,0.003c0.391,0.001,0.584,0.229,0.504,0.612c-0.168,0.801-0.34,1.601-0.51,2.402
			c-0.016,0.069-0.029,0.139-0.043,0.209c0.266-0.312,0.584-0.539,0.957-0.689c0.678-0.275,1.375-0.374,2.08-0.127
			C44.393,21.196,44.797,21.79,44.823,22.527z M45.606,19.18c0,0.126,0,0.252,0,0.378c-0.029,0.064-0.054,0.131-0.087,0.194
			c-0.192,0.368-0.653,0.527-1.073,0.373c-0.386-0.141-0.593-0.548-0.492-0.964c0.095-0.396,0.476-0.654,0.896-0.611
			C45.244,18.59,45.485,18.813,45.606,19.18z M45.385,19.37c0.004-0.35-0.27-0.64-0.61-0.644c-0.343-0.005-0.611,0.272-0.615,0.633
			c-0.002,0.362,0.261,0.642,0.604,0.645C45.104,20.007,45.381,19.725,45.385,19.37z M44.991,19.407
			c-0.021,0.007-0.041,0.016-0.065,0.027c0.073,0.127,0.146,0.25,0.222,0.376c-0.125,0.035-0.21,0.018-0.259-0.104
			c-0.027-0.074-0.072-0.145-0.119-0.21c-0.025-0.036-0.072-0.055-0.141-0.105c0,0.171,0,0.295,0,0.426c-0.066,0-0.119,0-0.179,0
			c0-0.298,0-0.593,0-0.896c0.17,0,0.345-0.014,0.515,0.004c0.118,0.013,0.182,0.107,0.186,0.231
			C45.153,19.276,45.115,19.369,44.991,19.407z M44.942,19.113c-0.095-0.035-0.193-0.056-0.308-0.085c0,0.104,0,0.17,0,0.273
			c0.105-0.023,0.207-0.04,0.303-0.071C44.951,19.224,44.953,19.117,44.942,19.113z M30.559,22.664
			c-0.061,0.93-0.271,1.833-0.485,2.733c-0.129,0.548-0.276,1.091-0.42,1.634c-0.095,0.357-0.326,0.559-0.695,0.567
			c-0.44,0.013-0.883,0.005-1.323,0.002c-0.129,0-0.16-0.046-0.131-0.171c0.032-0.135,0.067-0.27,0.104-0.402
			c-0.471,0.565-1.098,0.729-1.787,0.756c-0.408,0.017-0.811-0.008-1.201-0.138c-0.654-0.217-1.023-0.675-1.119-1.354
			c-0.051-0.354-0.031-0.709,0.072-1.055c0.172-0.572,0.578-0.918,1.109-1.139c0.567-0.236,1.168-0.318,1.774-0.375
			c0.427-0.04,0.853-0.066,1.277-0.109c0.116-0.014,0.235-0.059,0.344-0.107c0.308-0.142,0.455-0.457,0.379-0.784
			c-0.053-0.232-0.211-0.365-0.428-0.424c-0.358-0.098-0.724-0.088-1.078,0.025c-0.291,0.092-0.465,0.303-0.53,0.596
			c-0.025,0.113-0.08,0.146-0.187,0.144c-0.568-0.003-1.136-0.001-1.703-0.002c-0.168,0-0.19-0.033-0.149-0.194
			c0.243-1.009,0.866-1.655,1.877-1.89c1.03-0.24,2.063-0.202,3.086,0.07c0.129,0.035,0.256,0.089,0.375,0.148
			C30.319,21.489,30.604,21.998,30.559,22.664z M28.119,24.646c-0.213,0.05-0.41,0.105-0.611,0.14
			c-0.217,0.037-0.438,0.047-0.656,0.074c-0.311,0.036-0.618,0.075-0.885,0.256c-0.276,0.188-0.356,0.463-0.312,0.778
			c0.037,0.267,0.209,0.429,0.457,0.493c0.476,0.125,0.924,0.062,1.312-0.253C27.893,25.747,28.028,25.198,28.119,24.646z
			 M21.792,25.846c-0.328-0.463-0.655-0.925-0.992-1.399c0.049-0.045,0.087-0.084,0.127-0.121c1.135-1.025,2.271-2.053,3.405-3.083
			c0.041-0.039,0.057-0.11,0.082-0.166c-0.055-0.02-0.107-0.056-0.164-0.056c-0.742-0.004-1.486-0.005-2.229,0.001
			c-0.07,0-0.157,0.04-0.208,0.089c-0.603,0.588-1.2,1.182-1.799,1.774c-0.109,0.107-0.222,0.213-0.355,0.341
			c0.017-0.089,0.025-0.142,0.036-0.194c0.26-1.232,0.522-2.464,0.78-3.697c0.1-0.475-0.146-0.776-0.63-0.781
			c-0.41-0.004-0.82,0.002-1.23-0.004c-0.115-0.001-0.156,0.045-0.178,0.151c-0.607,2.901-1.217,5.803-1.827,8.705
			c-0.033,0.16-0.006,0.194,0.158,0.194c0.446,0.001,0.892,0.002,1.338,0c0.417-0.002,0.676-0.215,0.762-0.623
			c0.058-0.271,0.112-0.546,0.168-0.819c0.053-0.256,0.106-0.516,0.164-0.791c0.032,0.045,0.053,0.07,0.073,0.102
			c0.442,0.673,0.885,1.348,1.324,2.021c0.049,0.076,0.104,0.112,0.196,0.111c0.658-0.003,1.315,0,1.973-0.004
			c0.053,0,0.14-0.021,0.15-0.054c0.015-0.046-0.009-0.12-0.041-0.166C22.517,26.866,22.154,26.358,21.792,25.846z M15.246,20.976
			c0.174,2.938-0.822,5.442-2.847,7.546c-1.148,1.192-2.53,2.015-4.15,2.398c-0.414,0.098-0.844,0.129-1.266,0.19
			c-0.021,0.002-0.042,0.01-0.063,0.019c-0.225,0-0.45,0-0.676,0c-0.146-0.019-0.293-0.035-0.439-0.054
			c-1.157-0.135-2.208-0.543-3.127-1.26c-1.521-1.188-2.311-2.791-2.594-4.67C0.049,24.915,0.027,24.683,0,24.452
			c0-0.334,0-0.668,0-1c0.007-0.021,0.017-0.041,0.02-0.063c0.034-0.299,0.048-0.602,0.101-0.898
			c0.438-2.492,1.616-4.56,3.586-6.158c1.116-0.906,2.381-1.51,3.807-1.752c0.251-0.042,0.506-0.07,0.759-0.104
			c0.279,0,0.559,0,0.838,0c0.249,0.035,0.5,0.06,0.746,0.106c2.039,0.384,3.536,1.514,4.521,3.327
			C14.897,18.865,15.181,19.894,15.246,20.976z M12.349,18.574c-0.081-0.024-0.168-0.035-0.252-0.035
			c-0.527,0.001-1.054,0.009-1.581,0.008c-0.118,0-0.167,0.042-0.191,0.155c-0.306,1.479-0.611,2.959-0.925,4.437
			c-0.12,0.562-0.238,1.128-0.481,1.654c-0.188,0.405-0.46,0.731-0.889,0.896c-0.414,0.158-0.843,0.184-1.275,0.094
			c-0.546-0.11-0.956-0.492-0.887-1.172c0.007-0.07,0.006-0.145,0.02-0.215c0.097-0.48,0.193-0.961,0.297-1.439
			c0.275-1.266,0.555-2.53,0.829-3.796c0.083-0.385-0.106-0.611-0.5-0.613c-0.262-0.002-0.522,0-0.784-0.001
			c-0.275,0-0.55,0.003-0.824-0.001c-0.112-0.002-0.157,0.042-0.18,0.15c-0.283,1.315-0.574,2.627-0.854,3.942
			c-0.173,0.812-0.388,1.619-0.39,2.461c-0.001,0.414,0.072,0.807,0.277,1.167c0.343,0.606,0.878,0.981,1.518,1.214
			c1.141,0.41,2.305,0.396,3.473,0.139c0.907-0.198,1.628-0.678,2.111-1.486c0.27-0.452,0.458-0.939,0.577-1.45
			c0.216-0.928,0.413-1.861,0.612-2.793c0.202-0.946,0.398-1.893,0.592-2.84C12.687,18.812,12.581,18.642,12.349,18.574z
			 M13.447,17.116c-0.824-1.302-2.22-1.924-3.07-2.108c-0.295-0.088-0.652-0.138-0.982-0.165c-0.875-0.072-1.734,0.027-2.57,0.303
			c-1.731,0.571-3.099,1.636-4.171,3.093c-0.228,0.31-0.426,0.641-0.638,0.963c0.012,0.009,0.025,0.018,0.037,0.026
			c0.028-0.041,0.057-0.081,0.084-0.122c0.876-1.335,2.017-2.379,3.459-3.075c1.475-0.712,3.018-0.954,4.634-0.597
			C10.526,15.499,12.057,16.027,13.447,17.116z M36.115,21.081c-1.174-0.407-2.352-0.352-3.492,0.132
			c-0.785,0.335-1.209,0.947-1.219,1.824c-0.012,0.781,0.297,1.291,1.02,1.582c0.314,0.127,0.652,0.199,0.98,0.295
			c0.344,0.1,0.697,0.178,1.035,0.299c0.289,0.104,0.396,0.347,0.322,0.645c-0.047,0.198-0.187,0.324-0.363,0.408
			c-0.275,0.13-0.568,0.141-0.859,0.094c-0.508-0.082-0.709-0.293-0.785-0.798c-0.014-0.096-0.057-0.132-0.147-0.13
			c-0.281,0.002-0.56,0-0.839,0c-0.274,0-0.551,0-0.823,0c-0.164,0-0.188,0.027-0.175,0.193c0.007,0.062,0.015,0.125,0.021,0.188
			c0.125,0.911,0.6,1.533,1.494,1.809c0.553,0.17,1.117,0.186,1.686,0.16c0.552-0.021,1.095-0.095,1.611-0.297
			c0.635-0.25,1.094-0.673,1.271-1.35c0.052-0.199,0.087-0.407,0.093-0.611c0.024-0.945-0.254-1.465-1.134-1.766
			c-0.391-0.135-0.797-0.217-1.194-0.332c-0.267-0.077-0.539-0.147-0.791-0.263c-0.312-0.143-0.346-0.501-0.094-0.737
			c0.062-0.057,0.137-0.102,0.213-0.137c0.246-0.112,0.506-0.134,0.769-0.099c0.387,0.052,0.598,0.262,0.616,0.615
			c0.007,0.131,0.058,0.17,0.183,0.169c0.535-0.004,1.072-0.001,1.606-0.002c0.172,0,0.188-0.016,0.188-0.184
			C37.305,21.975,36.897,21.352,36.115,21.081z"/>
	</g>
</g>
<g>
</g>
<g>
</g>
<g>
</g>
<g>
</g>
<g>
</g>
<g>
</g>
<g>
</g>
<g>
</g>
<g>
</g>
<g>
</g>
<g>
</g>
<g>
</g>
<g>
</g>
<g>
</g>
<g>
</g>
</svg>
