<svg clip-rule="evenodd" fill-rule="evenodd" stroke-linejoin="round" stroke-miterlimit="2" viewBox="0 0 137 58" xmlns="http://www.w3.org/2000/svg"><g fill-rule="nonzero" stroke="#000" stroke-width=".35"><g fill="#fff"><path d="m76.3 22.3h2.2l-3-8.8h-2.3l-3 8.8h2.2l.5-1.8h2.7zm-1.9-6.8s.2 1 .4 1.5l.5 1.7h-1.7l.4-1.7c.2-.5.4-1.5.4-1.5zm6 2.4c0 2.9 2.1 4.6 4.3 4.6 1.5 0 2.3-.8 2.3-.8v.6h1.8v-5h-3.2v1.8h1.2v.7s-.8.6-1.8.6c-1.4 0-2.5-1-2.5-2.7 0-1.3.8-2.5 2.6-2.5 1.2 0 2.1.8 2.1.8l1-1.6s-1.1-1.2-3.4-1.2c-2.5.2-4.4 2.1-4.4 4.7zm11.6 4.4h5.7v-1.8h-3.5v-1.7h2.7v-1.8h-2.7v-1.6h3.4v-1.8h-5.6zm8.7 0h2.2v-4.1c0-.6-.1-1.5-.1-1.5s.4.9.7 1.5l2.5 4.1h2.2v-8.8h-2.2v4.1c0 .6.1 1.5.1 1.5s-.4-.9-.7-1.5l-2.4-4.1h-2.2v8.8zm10.5 0h6.9v-1.8h-3.5-.7s.3-.3.7-.8l3.4-4.8v-1.3h-6.7v1.8h3.9s-.3.3-.7.8l-3.4 4.8v1.3zm9.9 0h2.2v-8.8h-2.2zm10.7 0h2.2l-3-8.8h-2.3l-3 8.8h2.2l.5-1.8h2.7zm-1.9-6.8s.2 1 .4 1.5l.5 1.7h-1.7l.5-1.7c.1-.5.3-1.5.3-1.5z"/><path d="m70.4 44h2.2l.3-4v-1.5s.3.9.5 1.5l.9 2.6h1.8l.9-2.6c.2-.6.5-1.5.5-1.5v1.5l.3 4h2.2l-.7-8.8h-2.3l-1.3 3.7c-.2.6-.4 1.5-.4 1.5s-.2-.9-.4-1.5l-1.3-3.7h-2.3zm10.1-4.5c0 2.6 1.9 4.6 4.6 4.6s4.6-2 4.6-4.6c0-2.5-1.9-4.5-4.6-4.5-2.6 0-4.6 2-4.6 4.5zm2.2 0c0-1.4 1.1-2.5 2.4-2.5s2.4 1.1 2.4 2.5c0 1.5-1.1 2.6-2.4 2.6-1.3.1-2.4-1.1-2.4-2.6zm7.8 4.5h2.2v-4.1c0-.6-.1-1.5-.1-1.5s.4.9.7 1.5l2.5 4.1h2.2v-8.8h-2.2v4.1c0 .6.1 1.5.1 1.5s-.4-.9-.7-1.5l-2.4-4.1h-2.2v8.8zm8.3-4.5c0 2.6 1.9 4.6 4.6 4.6s4.6-2 4.6-4.6c0-2.5-1.9-4.5-4.6-4.5-2.6 0-4.6 2-4.6 4.5zm2.2 0c0-1.4 1.1-2.5 2.4-2.5s2.4 1.1 2.4 2.5c0 1.5-1.1 2.6-2.4 2.6-1.3.1-2.4-1.1-2.4-2.6zm7.9 4.5h2.2v-2.7h1.5c1.7 0 2.9-1.3 2.9-3.1s-1.2-3-2.9-3h-3.7zm2.1-4.6v-2.4h1.1c.7 0 1.1.5 1.1 1.2s-.4 1.2-1.1 1.2zm4.4.1c0 2.6 1.9 4.6 4.6 4.6s4.6-2 4.6-4.6c0-2.5-1.9-4.5-4.6-4.5-2.6 0-4.6 2-4.6 4.5zm2.3 0c0-1.4 1.1-2.5 2.4-2.5s2.4 1.1 2.4 2.5c0 1.5-1.1 2.6-2.4 2.6-1.4.1-2.4-1.1-2.4-2.6zm7.8 4.5h5.8v-1.8h-3.6v-7h-2.2zm6.3 0h2.2v-8.8h-2.2z"/><path d="m70.4 33.1h3.1c2.8 0 4.5-1.7 4.5-4.4 0-2.8-1.8-4.4-4.5-4.4h-3.1zm2.1-1.8v-5.1h.9c1.5 0 2.4.9 2.4 2.5 0 1.7-.9 2.6-2.4 2.6zm8.8-2.6c0 2.6 1.9 4.6 4.6 4.6s4.6-2 4.6-4.6c0-2.5-1.9-4.5-4.6-4.5s-4.6 1.9-4.6 4.5zm2.2 0c0-1.4 1.1-2.5 2.4-2.5s2.4 1.1 2.4 2.5c0 1.5-1.1 2.6-2.4 2.6-1.4 0-2.4-1.1-2.4-2.6zm10.1 0c0 2.9 2.1 4.6 4.3 4.6 1.5 0 2.3-.8 2.3-.8v.6h1.8v-5h-3.2v1.9h1.2v.7s-.8.6-1.8.6c-1.4 0-2.5-1-2.5-2.7 0-1.3.8-2.5 2.6-2.5 1.2 0 2.1.8 2.1.8l1-1.6s-1.1-1.2-3.4-1.2c-2.4.1-4.4 2-4.4 4.6zm17.4 4.4h2.2l-3-8.8h-2.3l-3 8.8h2.2l.5-1.8h2.7zm-1.9-6.8s.2 1 .4 1.5l.5 1.7h-1.7l.5-1.7c.1-.5.3-1.5.3-1.5zm7.4 6.8h2.2v-4.1c0-.6-.1-1.5-.1-1.5s.4.9.7 1.5l2.5 4.1h2.2v-8.8h-2.2v4.1c0 .6.1 1.5.1 1.5s-.4-.9-.7-1.5l-2.4-4.1h-2.2v8.8zm11.8 0h5.7v-1.8h-3.5v-1.7h2.7v-1.8h-2.7v-1.6h3.4v-1.8h-5.5v8.7z"/><path d="m63.2.9h.7v55.4h-.7z"/><path d="m29.1 1.1.8 2.3 2.4.1-1.8 1.5.6 2.3-2-1.3-2.1 1.3.7-2.3-1.9-1.5 2.4-.1z"/><path d="m42.9 4.9-.4 2.4 2 1.3-2.3.4-.7 2.3-1-2.2-2.5.2 1.8-1.7-.9-2.3 2.1 1.1z"/><path d="m52.9 15-1.5 1.8 1.1 2.2-2.3-.9-1.7 1.7.2-2.4-2.2-1.1 2.3-.6.4-2.4 1.3 2z"/><path d="m56.6 28.7-2.3.8-.1 2.4-1.5-1.8-2.3.6 1.3-2-1.3-2 2.3.6 1.5-1.9.1 2.4z"/><path d="m52.9 42.5-2.4-.4-1.3 2-.4-2.3-2.3-.6 2.2-1.1-.2-2.4 1.7 1.7 2.3-.9-1.1 2.1z"/><path d="m43.1 52.5-1.9-1.5-2.2 1.1.9-2.3-1.8-1.6 2.4.1 1.1-2.2.7 2.3 2.3.4-2 1.3z"/><path d="m29 56.3-.8-2.2-2.4-.1 1.8-1.6-.6-2.3 2 1.3 2-1.3-.6 2.3 1.9 1.5-2.4.2z"/><path d="m15.4 52.7.3-2.4-2-1.2 2.4-.4.6-2.4 1.1 2.2 2.4-.2-1.7 1.7.9 2.3-2.2-1.1z"/><path d="m5.3 42.9 1.5-1.9-1.2-2.2 2.3.9 1.7-1.8-.1 2.4 2.1 1.1-2.3.7-.3 2.3-1.3-2z"/><path d="m1.4 28.8 2.2-.9.1-2.4 1.6 1.9 2.3-.7-1.3 2.1 1.3 2-2.3-.6-1.5 1.8-.2-2.4z"/><path d="m5 15 2.4.4 1.3-2 .4 2.3 2.3.6-2.1 1.1.1 2.4-1.7-1.7-2.2.9 1.1-2.1z"/><path d="m15.2 4.8 1.9 1.5 2.1-1.1-.8 2.3 1.7 1.7-2.4-.1-1.1 2.1-.6-2.3-2.4-.4 2-1.3z"/><path d="m26.2 25c1.8.7 3.1 1.2 4.6 1.7 1.6.5 3.3.8 5.1.8s3.5-.3 5.2-.8c1-.3 1.8-.8 2.6-1.4l2.7-2h-13.3l-4-13.1-4.1 13.1h-3.7c1.7.5 3.3 1.1 4.9 1.7z"/></g><path d="m18.2 26.3c2.7.7 5.4 1.7 8 2.7 1.8.7 3.1 1.2 4.6 1.7 1.6.5 3.2.8 4.9.8l2.8-2.2c-.9.1-1.8.2-2.7.2-1.8 0-3.5-.3-5.1-.8-1.5-.5-2.8-1-4.6-1.7-2.6-1-5.2-2-8-2.7-1.4-.4-2.8-.5-4.3-.5h-.1c-.5 0-.9 0-1.4.1l2.5 1.9c1.3.1 2.4.2 3.4.5z" fill="#00a557"/><path d="m22.5 31.6c1.3.4 2.5.9 3.8 1.4 1.8.7 3.1 1.2 4.6 1.7 1.6.5 3.3.8 5.1.8h.8l-.6-2h-.2c-1.8 0-3.5-.3-5.1-.8-1.5-.5-2.8-1-4.6-1.7-2.6-1-5.2-2-8-2.7z" fill="#d93740"/><path d="m36 37.4c-1.8 0-3.5-.3-5.1-.8-1.5-.5-2.8-1-4.6-1.7-1.4-.5-2.9-1.1-4.3-1.6l-3.5 11.5 10.6-8.1 10.6 8.1-2.3-7.5c-.5.1-1 .1-1.4.1z" fill="#fff"/></g></svg>